<svg xmlns="http://www.w3.org/2000/svg" width="400" height="435.072" viewBox="0 0 400 435.072"><g fill-rule="evenodd"><path d="M186.2.459c-3.74.183-7.52.416-8.4.518-3.356.388-6.854.738-8.205.822-.772.047-1.77.203-2.217.345-.448.142-1.795.331-2.996.421-1.2.09-2.452.255-2.782.367-1.439.491-6.045 1.136-6.596.925-.332-.128-.604-.073-.604.12 0 .194-.765.469-1.7.611-.935.141-2.06.409-2.5.594-.44.185-2.06.643-3.6 1.016-4.11.998-9.426 2.57-10.8 3.194-.66.3-2.46 1.018-4 1.595-19.515 7.322-34.173 24.097-35.66 40.813-.137 1.54-.39 2.982-.563 3.203-1.343 1.723.977 16.509 3.787 24.147 1.002 2.722 1.707 5.135 1.567 5.362-.14.226-.068.296.16.155.236-.146 1.064.995 1.917 2.638 1.57 3.028 5.193 8.986 7.086 11.655 1.468 2.07 1.655 1.759-2.994 4.978C81.819 121.441 55.762 148.763 37.419 177c-5.204 8.012-7.042 11.057-11.104 18.4-6.828 12.341-14.025 28.389-17.616 39.285-.233.707-.604 1.174-.823 1.038-.221-.136-.276-.046-.123.201.153.247-.624 3.442-1.725 7.101-1.101 3.658-2.385 8.659-2.853 11.113-.468 2.454-.952 4.732-1.076 5.062-.124.33-.192.753-.149.939.042.187-.122 1.357-.363 2.6-1.618 8.328-1.871 23.865-.543 33.261.299 2.114.633 4.857.756 6.2.06.66.2 1.47.311 1.8.111.33.759 3.48 1.441 7 .681 3.52 1.323 6.67 1.426 7 .103.33.815 2.676 1.583 5.213C18.266 361.898 47.6 393.974 88.2 412.484c9.944 4.533 23.577 9.611 30.5 11.36 1.595.403 2.9.884 2.9 1.068 0 .184.184.221.409.082.226-.139 1.531.12 2.9.575 1.37.455 5.461 1.464 9.091 2.242 3.63.778 6.96 1.494 7.4 1.591 1.445.318 2.755.545 6.1 1.056 1.815.278 3.3.612 3.3.743s.63.165 1.4.075c.77-.09 1.4.005 1.4.211s.538.296 1.195.199c.657-.096 1.512-.039 1.9.127.388.166 1.196.263 1.796.215.6-.047 1.315.052 1.589.221.274.17 1.173.259 1.999.2.825-.06 1.696.012 1.935.16.239.147 1.369.326 2.51.396 1.142.07 3.336.248 4.876.394 4.862.464 5.755.513 17.253.965 8.175.321 14.356.323 22.6.005 11.438-.44 12.262-.486 17.347-.969 1.54-.146 3.619-.308 4.619-.359 1.001-.052 2.041-.231 2.31-.397.27-.167 1.074-.253 1.787-.192.712.061 1.522-.029 1.8-.2.277-.171 1.084-.273 1.794-.226.709.046 1.608-.051 1.997-.216.388-.165 1.147-.216 1.686-.113.538.102 1.03.037 1.093-.145.063-.182 1.417-.381 3.01-.442 1.593-.06 2.898-.222 2.9-.358.002-.137.859-.376 1.904-.532 1.045-.155 2.26-.374 2.7-.487.44-.112 1.169-.246 1.62-.296.451-.05 1.027-.219 1.279-.375.253-.156 1.234-.35 2.18-.432.947-.082 1.991-.253 2.321-.381.33-.129 2.58-.661 5-1.184 5.125-1.107 18.11-4.718 20.318-5.65.834-.352 1.689-.534 1.9-.404.21.13.382.078.382-.114 0-.193 1.035-.671 2.3-1.063 27.808-8.609 57.802-29.063 76.308-52.037 13.698-17.004 24.222-40.981 27.39-62.397.26-1.76.575-3.47.701-3.8.125-.33.193-.755.149-.945-.043-.19.124-1.72.37-3.4.728-4.962.982-9.063.982-15.855 0-5.571-.14-8.034-.854-15-.079-.77-.522-3.65-.985-6.4-.462-2.75-.868-5.584-.901-6.299-.033-.714-.175-1.299-.315-1.3-.141 0-.368-.599-.505-1.329-.378-2.016-4.048-14.184-5.007-16.601-.464-1.171-.751-2.281-.636-2.466.114-.185.063-.397-.114-.471-.176-.074-.74-1.304-1.252-2.734-7.936-22.172-24.834-51.514-42.386-73.6-16.392-20.626-33.921-37.16-55.764-52.6-2.619-1.851-2.651-1.957-1.161-3.809 5.633-6.999 12.017-20.542 13.351-28.322.27-1.578.591-2.869.713-2.869s.157-.81.079-1.8c-.079-.99.01-1.8.197-1.8.39.001.312-9.486-.086-10.524-.145-.377-.184-1.224-.088-1.881.097-.657.047-1.195-.11-1.195s-.406-.803-.553-1.784c-.265-1.766-1.789-6.246-3.373-9.914-4.52-10.465-17.893-22.265-31.25-27.574-1.65-.656-3.54-1.441-4.2-1.745-2.348-1.082-17.698-5.183-21.078-5.631-1.057-.14-1.922-.376-1.922-.523 0-.148-.63-.195-1.4-.105-.788.092-1.4-.014-1.4-.243 0-.223-.357-.313-.794-.198-.437.114-1.112.082-1.5-.071-.388-.153-2.043-.363-3.678-.466-1.635-.103-3.155-.301-3.379-.439-.224-.139-1.407-.313-2.628-.387a120.999 120.999 0 0 1-3.821-.295C214.364.199 197.035-.07 186.2.459M206.567 29.5c.165.165 2.31.322 4.767.349l6.764.076c1.264.014 2.52.163 2.792.33.271.168 1.306.333 2.301.368 1.686.058 3.727.279 6.609.717.66.101 2.145.315 3.3.477 1.155.162 2.1.444 2.1.626 0 .183.274.227.608.099 1.539-.591 12.47 1.904 18.544 4.231 11.397 4.368 19.765 12.605 19.829 19.518.01 1.16.154 2.108.319 2.109.165 0 .3.45.3 1s-.138 1-.307 1c-.168 0-.312 1.035-.319 2.3-.068 11.896-17.289 32.278-35.874 42.458-3.915 2.145-3.973 2 1.6 4.042 26.948 9.875 53.214 29.057 76.721 56.03 25.968 29.798 47.728 71.257 52.049 99.17.085.55.261 1.63.39 2.4.511 3.048.617 5.341.637 13.8.022 9.516-.177 12.818-1.048 17.4a80.61 80.61 0 0 0-.474 3.09c-.156 1.149-.407 2.014-.557 1.921-.15-.093-.195.362-.1 1.01.107.733-.004 1.179-.296 1.179-.258 0-.355.185-.215.412.343.554-1.025 6.788-1.488 6.788-.202 0-.262.168-.135.373.127.206-.049 1.151-.39 2.1a202.15 202.15 0 0 0-1.65 4.927c-7.115 22.103-25.145 43.505-48.944 58.096-8.104 4.969-30.063 15.007-31.239 14.28-.198-.123-.361-.061-.361.137 0 .469-3.098 1.398-3.608 1.082-.216-.133-.392-.081-.392.116 0 .802-16.211 5.201-17.436 4.731-.333-.128-.513-.083-.399.101.23.372-5.331 1.825-5.674 1.482-.119-.12-.418-.052-.663.151-.641.532-14.25 2.504-15.362 2.225-.514-.128-.833-.07-.709.129.123.199-.987.49-2.467.646-1.479.156-3.32.368-4.09.47-14.971 1.994-48.07 2.002-64.4.017a635.97 635.97 0 0 0-4.1-.475c-1.485-.167-2.7-.417-2.7-.556 0-.139-.72-.184-1.6-.101-1.038.099-1.6-.011-1.6-.313 0-.256-.196-.344-.436-.196-.587.363-7.964-.671-7.964-1.117 0-.194-.177-.243-.392-.11-.388.24-4.843-.404-6.008-.867a8.42 8.42 0 0 0-1.2-.361c-35.976-7.317-66.809-23.832-85.58-45.839-9.234-10.826-15.189-21.007-19.732-33.738-2.06-5.774-3.23-10.037-2.9-10.57.119-.194.03-.414-.198-.49-.228-.076-.454-.99-.502-2.031-.048-1.042-.203-1.895-.343-1.896-.14-.002-.399-.858-.576-1.903-.176-1.045-.374-2.17-.44-2.5-.227-1.146-.629-4.208-.736-5.6-.059-.77-.239-1.724-.4-2.119-.161-.396-.198-1.431-.081-2.3.116-.869.055-1.678-.137-1.796-.361-.223-.48-15.691-.125-16.266.11-.178.275-1.587.367-3.132.091-1.544.343-3.139.56-3.545.217-.405.307-.825.2-.932-.233-.233 2.622-12.422 2.977-12.71.135-.11.294-.668.352-1.241.223-2.19 6.26-18.139 9.588-25.326 2.972-6.42 8.952-17.759 11.514-21.833.484-.77 1.301-2.12 1.816-3 2.573-4.4 11.398-17.341 14.976-21.96 17.573-22.687 33.59-38.366 51.8-50.706 10.209-6.918 16.309-10.144 32.054-16.949a341.16 341.16 0 0 0 5.312-2.352c1.242-.568 2.432-1.033 2.646-1.033.928 0 .226-.726-1.912-1.975-33.135-19.36-46.392-47.198-29.39-61.711 5.765-4.921 24.829-12.297 28.32-10.958.314.121.57.026.57-.211 0-.258.624-.369 1.566-.28.862.083 1.481.011 1.377-.158-.105-.169.407-.307 1.136-.307.729 0 1.952-.179 2.717-.399 1.315-.377 3.801-.688 8.804-1.102 6.343-.525 8.172-.623 12.266-.659 2.456-.022 4.601-.175 4.767-.34.165-.165 2.94-.3 6.167-.3s6.002.135 6.167.3M162.8 174.881c0 .175-.29.319-.644.319-2.903 0-8.402 5.132-9.381 8.754-.275 1.015-.614 2.026-.755 2.246-.289.451-.222 2.886.104 3.8.118.33.523 1.577.901 2.771.726 2.295 3.711 5.569 17.716 19.429 2.89 2.86 5.255 5.425 5.257 5.7.001.387-2.289.5-10.125.5-11.288 0-12.785.235-16.112 2.528-2.089 1.439-4.484 4.585-4.837 6.354-.123.615-.341 1.118-.485 1.118-.487 0 .256 6.593.923 8.178 1.341 3.193 5 6.531 7.938 7.242.605.147 1.1.382 1.099.523 0 .142.765.262 1.7.269.936.007 8.136.052 16.001.1l14.3.088v14.818l-16.2-.109c-8.91-.06-16.2.026-16.2.191s-.333.3-.74.3c-3.331 0-8.187 4.823-9.867 9.8-.312.924-.363 4.516-.076 5.4 3.269 10.075 5.833 10.956 31.983 10.987l11.1.013.06 11.4c.033 6.27.025 11.874-.019 12.454-.72 9.511 9.054 17.169 17.757 13.912 7.671-2.87 8.715-5.728 8.618-23.595-.037-6.726.042-12.666.176-13.2l.243-.971 5.283.11c9.966.207 26.641-.856 28.482-1.815 3.267-1.703 6.999-6.818 7-9.595 0-.495.18-.9.4-.9.22 0 .4-.45.4-1s-.18-1-.4-1c-.22 0-.4-.476-.4-1.058 0-1.8-2.642-6.751-4.298-8.054-4.057-3.192-3.29-3.074-20.802-3.209l-15.7-.122V244.8l12.9-.011c21.317-.018 23.632-.606 27.468-6.979 4.131-6.864-.239-17.684-7.618-18.864-.853-.137-1.55-.36-1.55-.497.001-.137-4.589-.193-10.2-.124-7.582.093-10.2.005-10.2-.342 0-.257 4.295-4.813 9.544-10.125 13.23-13.388 14.056-14.39 14.056-17.045 0-.447.145-.813.322-.813.391 0 .356-3.055-.04-3.451-.155-.155-.284-.657-.286-1.116-.028-5.918-9.324-12.002-15.596-10.207-.99.284-1.935.484-2.1.445-.165-.039-.3.087-.3.28 0 .194-.585.583-1.3.866-.785.311-6.648 5.831-14.797 13.933l-13.498 13.418-13.502-13.398c-15.04-14.924-15.718-15.445-20.72-15.923-1.64-.157-2.983-.141-2.983.034" fill="#040404"/><path d="M183.9.282a5.661 5.661 0 0 0 1.8 0c.495-.095.09-.173-.9-.173s-1.395.078-.9.173m29.405.005c.609.092 1.509.09 2-.005.492-.095-.005-.171-1.105-.168-1.1.003-1.503.081-.895.173M177.3.676c.385.1 1.015.1 1.4 0 .385-.101.07-.183-.7-.183s-1.085.082-.7.183m43.6 0c.385.1 1.015.1 1.4 0 .385-.101.07-.183-.7-.183s-1.085.082-.7.183M152.4 4c0 .22.27.4.6.4.33 0 .6-.18.6-.4 0-.22-.27-.4-.6-.4-.33 0-.6.18-.6.4m94.4 0c0 .22.27.4.6.4.33 0 .6-.18.6-.4 0-.22-.27-.4-.6-.4-.33 0-.6.18-.6.4m-118.788 7.584c-.324.205-.485.477-.358.604.315.315 1.546-.187 1.546-.631 0-.456-.44-.446-1.188.027m142.788-.048c0 .309 1.722 1.264 2.28 1.264.133 0-.173-.36-.68-.8-.972-.843-1.6-1.025-1.6-.464m-148.468 3.073c-1.467.753-3.177 1.856-3.8 2.451l-1.132 1.081 1.6-.949c.88-.523 1.71-1.11 1.845-1.305.134-.195.314-.311.4-.256.085.055 1.145-.468 2.355-1.162 2.923-1.676 2.09-1.584-1.268.14m153.213-.586c.74.451 1.432.734 1.537.628.202-.201-2.009-1.452-2.562-1.45-.176.001.285.371 1.025.822m2.855 1.563c0 .489 1.589 1.358 1.905 1.042.13-.13-.11-.499-.534-.819-.905-.685-1.371-.761-1.371-.223m5.183 3.598c.761.65 1.481 1.084 1.6.963.259-.261-2.008-2.143-2.583-2.144-.22-.001.223.531.983 1.181m-171.421 2.474c-.757.852-.756.855.116.398.972-.51 1.571-1.256 1.008-1.256-.199 0-.705.386-1.124.858m174.002-.517c.143.232.84.824 1.548 1.316l1.288.894-.796-.912c-.866-.995-2.492-2.028-2.04-1.298M108.41 24.99c-1.19 1.205-2.073 2.28-1.964 2.39.11.109 1.264-.876 2.564-2.19 1.301-1.315 2.184-2.39 1.964-2.39-.221 0-1.375.986-2.564 2.19m183.914 2.043c.516.995 1.676 2.023 1.676 1.486 0-.209-.474-.816-1.054-1.349-.941-.866-1.008-.88-.622-.137m-187.252 1.751c-1.092 1.104-2.672 3.321-2.672 3.748 0 .207.402-.143.893-.778a42.284 42.284 0 0 1 1.8-2.15c1.315-1.444 1.297-2.153-.021-.82M294.893 30.4c.275.44.636.8.803.8.167 0 .304.27.304.6 0 .33.18.6.4.6.586 0 .497-.34-.427-1.638-.925-1.299-1.861-1.613-1.08-.362M188.7 30.282a5.661 5.661 0 0 0 1.8 0c.495-.095.09-.173-.9-.173s-1.395.078-.9.173m21.005.005c.609.092 1.509.09 2-.005.492-.095-.005-.171-1.105-.168-1.1.003-1.503.081-.895.173m-28.005.389c.385.1 1.015.1 1.4 0 .385-.101.07-.183-.7-.183s-1.085.082-.7.183M165.8 32.4c-.136.22.123.4.576.4.453 0 .824-.18.824-.4 0-.22-.259-.4-.576-.4-.317 0-.688.18-.824.4m66.6 0c0 .22.36.4.8.4.44 0 .8-.18.8-.4 0-.22-.36-.4-.8-.4-.44 0-.8.18-.8.4m-69.2.4c0 .22.27.4.6.4.33 0 .6-.18.6-.4 0-.22-.27-.4-.6-.4-.33 0-.6.18-.6.4m72.4 0c0 .22.27.4.6.4.33 0 .6-.18.6-.4 0-.22-.27-.4-.6-.4-.33 0-.6.18-.6.4m-134.938 2.331c-.726.803-.846 1.269-.326 1.269.184 0 .541-.45.791-1 .542-1.189.428-1.255-.465-.269m197.769.577c.273.6.649 1.092.833 1.092.589 0 .362-.652-.497-1.43-.832-.753-.833-.752-.336.338M142.2 38.614c-.66.303-.93.552-.6.554.33.002 1.05-.254 1.6-.568 1.265-.723.589-.713-1 .014m-2.9 1.284c-.715.356-1.3.805-1.3.998 0 .193-.18.24-.4.104-.22-.136-.4-.057-.4.176 0 .622.566.518 1.505-.276a18.992 18.992 0 0 1 1.561-1.176c1.036-.673.566-.588-.966.174m121 .19c.495.239.9.571.9.739 0 .281 3.442 2.373 3.904 2.373.112 0-.264-.368-.836-.818-.572-.45-1.161-.794-1.309-.766-.148.029-.38-.108-.514-.305-.388-.567-2.182-1.714-2.634-1.684-.226.015-.006.222.489.461m-125.911 2.97c-1.448.964-5.189 4.649-5.189 5.112 0 .218 1.035-.63 2.3-1.884s2.75-2.636 3.3-3.07c1.218-.962.951-1.064-.411-.158M267.8 46c1.306 1.32 2.555 2.4 2.775 2.4.22 0-.669-1.08-1.975-2.4-1.306-1.32-2.555-2.4-2.775-2.4-.22 0 .669 1.08 1.975 2.4M96.4 45c0 .33.18.6.4.6.22 0 .4-.27.4-.6 0-.33-.18-.6-.4-.6-.22 0-.4.27-.4.6m206.8 3.6c0 .33.18.6.4.6.22 0 .4-.27.4-.6 0-.33-.18-.6-.4-.6-.22 0-.4.27-.4.6m-32.8.6c0 .22.176.4.39.4.215 0 .747.675 1.183 1.5.435.825.8 1.358.809 1.184.035-.615-1.604-3.484-1.99-3.484a.397.397 0 0 0-.392.4m33.901 5.5c-.08.165-.025.93.124 1.7l.27 1.4.052-1.7c.05-1.596-.109-2.092-.446-1.4M125.2 57.8c0 .55.18 1 .4 1 .22 0 .4-.45.4-1s-.18-1-.4-1c-.22 0-.4.45-.4 1m179.139 3.038c-.077 1.121-.004 2.122.161 2.224.165.102.3-.815.3-2.038 0-2.785-.277-2.896-.461-.186m-179.139.138c0 .537.18 1.088.4 1.224.233.144.4-.263.4-.976 0-.673-.18-1.224-.4-1.224-.22 0-.4.439-.4.976m-30 4.848c0 .563.163.922.362.799.2-.123.269-.584.154-1.023-.288-1.101-.516-1.002-.516.224M128.233 71c.142.44.348 1.115.459 1.5.246.856.908.929.908.1 0-.33-.152-.6-.339-.6-.186 0-.552-.405-.812-.9-.36-.684-.412-.708-.216-.1m142.46.708c-.752.927-.887 1.492-.357 1.492.341 0 1.396-2.002 1.172-2.225-.066-.067-.433.263-.815.733M96.4 73.4c0 .33.18.6.4.6.22 0 .4-.27.4-.6 0-.33-.18-.6-.4-.6-.22 0-.4.27-.4.6m34.096 2.168c.716 1.082 1.363 1.906 1.438 1.831.236-.236-1.992-3.799-2.375-3.799-.201 0 .221.885.937 1.968m138.489-.468c-1.046 2.053-1.168 2.386-.699 1.9.781-.809 2.168-3.4 1.821-3.4-.197 0-.702.675-1.122 1.5m-3.345 4.931c-.501.678-.79 1.352-.643 1.5.263.262 1.08-.637 1.846-2.031.643-1.169-.232-.783-1.203.531m-3.288 4.382c-2.385 2.675-3.129 4.016-1.25 2.255 1.19-1.115 3.911-4.668 3.575-4.668-.095 0-1.141 1.086-2.325 2.413m36.281-.556c-.334.873.11 1.279.583.531.473-.748.483-1.188.027-1.188-.197 0-.471.296-.61.657M137.2 85.043c0 .22.63 1.011 1.4 1.757.77.746 1.4 1.177 1.4.957 0-.22-.63-1.011-1.4-1.757-.77-.746-1.4-1.177-1.4-.957m159.595 2.885c-.767 1.47-1.503 2.762-1.635 2.872-.666.555-1.168 1.978-.624 1.769.519-.199 4.05-6.916 3.779-7.188-.069-.068-.753 1.078-1.52 2.547M103.2 89.495c0 .6 1.173 1.96 1.187 1.376.007-.29-.257-.798-.587-1.128-.33-.33-.6-.442-.6-.248m151.155 3.023c-1.786 1.555-2.409 2.629-.919 1.585 1.39-.975 2.364-2.036 2.105-2.295-.095-.095-.628.224-1.186.71m-109.955-.21c0 .376 1.424 1.758 2.369 2.299.443.254.429.126-.063-.577-.745-1.064-2.306-2.23-2.306-1.722M106 93.76c0 .54 1.668 3.105 1.881 2.892.105-.104-.276-.876-.845-1.714-.57-.838-1.036-1.368-1.036-1.178m185.869 2.28c-.622.866-1.062 1.781-.978 2.034.085.254.655-.394 1.267-1.438 1.383-2.361 1.221-2.696-.289-.596m-41.969.262c-.825.554-1.5 1.149-1.5 1.323 0 .174-1.08.973-2.4 1.775-1.32.802-2.4 1.615-2.4 1.807 0 .318 4.627-2.697 6.016-3.921a18.85 18.85 0 0 1 1.383-1.067c.44-.304.71-.637.6-.738-.109-.102-.874.268-1.699.821m-99.9.822c0 .215.285.5.633.633.39.15.573.061.475-.232-.199-.598-1.108-.927-1.108-.401m-42 .401c0 .355 1.513 2.075 1.826 2.075.107 0-.085-.54-.426-1.2-.575-1.111-1.4-1.628-1.4-.875m181.488 2.034c-.637 1.079-.631 1.168.121 1.849.848.767 1.12.281.301-.538-.387-.387-.381-.665.028-1.319.284-.456.45-.896.369-.978-.082-.081-.45.362-.819.986m-135.653.373c1.267 1.181 2.965 2.193 2.965 1.767 0-.391-2.925-2.499-3.467-2.499-.156 0 .07.329.502.732m-45.916 2.39c-1.035.797-1.813 1.518-1.728 1.602.244.245 3.809-2.322 3.809-2.743 0-.487.114-.55-2.081 1.141m134.881-.796c0 .179-.652.637-1.45 1.017-.797.38-1.359.781-1.25.89.277.277 3.1-1.429 3.1-1.873 0-.198-.09-.36-.2-.36-.11 0-.2.147-.2.326m-85.6.634c0 .275 2.891 1.882 3.067 1.706.092-.092-.481-.549-1.273-1.016-1.445-.853-1.794-.987-1.794-.69m135.77 1.679c1.037.792 1.992 1.332 2.124 1.2.132-.131.164-.291.073-.356-1.21-.846-3.611-2.283-3.816-2.283-.146 0 .582.648 1.619 1.439m-54.87.42c-.715.353-1.3.785-1.3.96 0 .381 2.283-.705 2.616-1.244.303-.491.219-.473-1.316.284m-134.425.957c-1.205 1.122-1.096 1.319.325.584.66-.341 1.2-.796 1.2-1.01 0-.618-.577-.457-1.525.426m57.925-.416c0 .22.168.4.372.4.788 0 3.188 1.825 3.025 2.3-.095.275.092.5.416.5.852 0 .721-1.104-.164-1.384-.413-.132-1.268-.683-1.9-1.227-1.229-1.057-1.749-1.232-1.749-.589m72.2 2c-.27.436.073 1.2.538 1.2.16 0 .291-.36.291-.8 0-.854-.422-1.058-.829-.4m-133.869 1.278c-1.01.703-2.067 1.648-2.348 2.1-.48.771-.465.785.248.222.417-.33.941-.737 1.164-.904 1.17-.879 3.176-2.684 2.989-2.69-.119-.003-1.043.569-2.053 1.272m199.269.246c0 .215.285.5.633.633.39.15.573.061.475-.232-.199-.598-1.108-.927-1.108-.401m-140.935 1.923c-.625.339-1.036.716-.913.838.305.306 2.648-.697 2.648-1.134 0-.489-.418-.418-1.735.296m83.211.031c-.149.241.012.547.359.68.945.363 1.443.292 1.161-.165-.138-.223-.403-.312-.589-.197-.186.115-.411-.008-.5-.274-.113-.339-.241-.352-.431-.044m-147.259 2.324c-1.091.989-1.811 1.79-1.6 1.78.517-.024 4.465-3.582 3.972-3.58-.214.001-1.281.811-2.372 1.8M303.2 111.4c.274.33.678.6.898.6.223 0 .18-.265-.098-.6-.274-.33-.678-.6-.898-.6-.223 0-.18.265.098.6m-149 .814c-.66.303-.93.552-.6.554.33.002 1.05-.254 1.6-.568 1.265-.723.589-.713-1 .014m151.37 1.131c.533.58 1.05 1.055 1.149 1.055.394 0-1.026-1.768-1.553-1.933-.311-.097-.13.298.404.878m-154.758.239c-.324.205-.485.477-.358.604.315.315 1.546-.187 1.546-.631 0-.456-.44-.446-1.188.027m98.493.292c.372.372.81.542.974.378.164-.163.033-.465-.291-.67-.973-.615-1.406-.431-.683.292m1.495.519c0 .276.941.805 1.433.805.546 0 .033-.742-.633-.916-.44-.115-.8-.065-.8.111m56.599.403c.135.219.641.605 1.123.858.872.457.873.454.116-.398-.763-.86-1.702-1.208-1.239-.46m-218.65 2.023c-.355.198-.961.843-1.348 1.433l-.702 1.073 1.238-.882c1.76-1.253 2.385-2.505.812-1.624M310 116.729c0 .354 1.004 1.324 1.895 1.831.329.186.419.08.267-.315-.268-.699-2.162-2.027-2.162-1.516m-167.988.855c-.324.205-.468.494-.319.642.148.148.56-.022.917-.378.703-.704.347-.861-.598-.264m116.193.424c.256.414 3.735 2.339 5.195 2.875.987.362.535.05-2.748-1.893-2.515-1.489-2.841-1.619-2.447-.982M138 119.8c-.55.314-.82.572-.6.572.22 0 .85-.258 1.4-.572.55-.314.82-.572.6-.572-.22 0-.85.258-1.4.572m175.63.437c.956 1.022 2.37 1.975 2.37 1.597 0-.339-2.585-2.63-2.97-2.632-.203-.001.067.465.6 1.035m-229.255.532c-.756.634-1.274 1.257-1.15 1.384.124.127.844-.288 1.6-.922.756-.634 1.274-1.257 1.15-1.384-.124-.127-.844.288-1.6.922m50.825.481c-.77.466-1.46 1.006-1.534 1.201-.074.195-.299.252-.5.128s-.366-.036-.366.197c0 .652.637.506 1.666-.381a32.974 32.974 0 0 1 1.734-1.388c1.193-.868.597-.723-1 .243m130 .733c0 .196.945.875 2.1 1.507 3.208 1.758 4.048 2.271 4.492 2.748.617.662 2.886 2.162 3.27 2.162.637-.001-2.061-2.074-4.742-3.643-1.474-.863-2.792-1.749-2.928-1.97-.136-.22-.415-.296-.62-.17-.204.127-.372.059-.372-.151 0-.209-.27-.484-.6-.611-.33-.126-.6-.069-.6.128m52.01 1.429c1.19 1.434 4.548 4.001 3.86 2.951-.68-1.038-3.583-3.563-4.096-3.563-.149 0-.043.276.236.612m-239.081 3.254c-3.974 3.973-5.141 5.522-1.719 2.281 1.424-1.349 3.22-2.999 3.99-3.667.77-.668 1.279-1.334 1.132-1.481-.147-.148-1.678 1.143-3.403 2.867m51.647-2.079c-.427.323-.596.588-.376.588.22 0 .749-.265 1.176-.588.428-.323.597-.587.377-.587-.22 0-.749.264-1.177.587m-7.276 4.659c-.715.458-1.3.995-1.3 1.193 0 .642.574.365 1.767-.85 1.375-1.402 1.287-1.466-.467-.343m154.573.513c.323.576 3.866 3.041 4.372 3.041.119 0-.374-.495-1.095-1.1-.722-.605-1.456-1.055-1.631-1-.176.055-.319-.074-.319-.286 0-.212-.378-.588-.84-.835-.715-.383-.787-.357-.487.18m47.327.166c0 .179.54.843 1.2 1.475 1.432 1.372 1.582.863.207-.7-.989-1.123-1.407-1.353-1.407-.775M69.467 135.25c-1.723 1.77-3.013 3.337-2.867 3.483.146.147.818-.363 1.492-1.133.675-.77 2.095-2.345 3.156-3.5 3.006-3.272 1.711-2.436-1.781 1.15m213.135-1.248c.4.442.813.716.919.61.269-.269-.729-1.412-1.232-1.412-.227 0-.086.361.313.802m-168 1.196c-.399.441-.54.802-.313.802.503 0 1.501-1.143 1.232-1.412-.106-.106-.519.168-.919.61m170.398.633 2.1 1.757c.495.413.9.607.9.43 0-.398-3.409-3.223-3.867-3.205-.183.007.207.465.867 1.018m46.427 1.399c2.841 3.139 3.798 4.078 3.975 3.901.223-.223-4.022-4.731-4.455-4.731-.149 0 .067.374.48.83m-221.421 1.552c-.547.42-.856.901-.688 1.069.168.169.792-.179 1.385-.772 1.238-1.238.781-1.433-.697-.297m178.794-.121c0 .59 1.952 2.32 2.265 2.007.148-.147.193-.313.102-.368-.092-.055-.662-.536-1.267-1.07-.605-.533-1.1-.789-1.1-.569m-225.262 2.956c-1.717 1.805-2.123 3.068-.499 1.553 1.264-1.18 2.725-3.17 2.326-3.17-.159 0-.981.728-1.827 1.617m43.478-.22c-.652.532-1.057 1.096-.9 1.252.156.156.329.209.384.118.055-.092.536-.662 1.07-1.267 1.187-1.347 1.008-1.38-.554-.103m185.718.91c.733.931 1.498 1.693 1.7 1.693.774 0 .301-.718-1.334-2.026l-1.7-1.36 1.334 1.693m43.611-.107c.66 1.222 2.038 2.851 2.03 2.4-.004-.22-.56-1.03-1.235-1.8s-1.033-1.04-.795-.6m-233.336 2.791c-.874.749-1.459 1.492-1.3 1.652.16.16.336.213.391.119.055-.094.72-.844 1.478-1.666 1.705-1.85 1.512-1.885-.569-.105m-42.809.375c-.66.529-1.069 1.094-.91 1.255.344.347 1.393-.455 1.946-1.488.506-.946.407-.924-1.036.233m236.182.052c1.344 1.618 4.136 4.155 4.588 4.17.516.017-1.193-1.759-3.57-3.71-1.617-1.327-1.812-1.415-1.018-.46m42.868.475c.207.543 3.95 4.654 3.95 4.338 0-.397-3.238-4.413-3.694-4.581-.223-.083-.338.027-.256.243m-281.452 2.509c-.4.442-.632.897-.516 1.013.115.115.508-.246.873-.803.797-1.216.638-1.31-.357-.21m38.23 3.292c-1.775 1.811-3.228 3.428-3.228 3.592 0 .276 3.697-3.33 5.97-5.823 2.192-2.403.258-.83-2.742 2.231m-40.528-.706c-1.012 1.391-.86 1.701.3.612.985-.925 1.288-1.612.7-1.587-.165.006-.615.445-1 .975m288.5.488c0 .22.36.726.8 1.124.44.398.8.544.8.324 0-.22-.36-.726-.8-1.124-.44-.398-.8-.544-.8-.324M51.592 155.81c-.773.931-.221 1.107.606.192.399-.441.54-.802.313-.802-.227 0-.641.274-.919.61m296.21.592c.4.442.813.716.919.61.269-.269-.729-1.412-1.232-1.412-.227 0-.086.361.313.802m-40.202-.248c0 .551 2.547 3.463 3.974 4.543l1.426 1.079-1.66-1.988c-1.902-2.278-3.74-4.064-3.74-3.634M50 157.8c-.283.341-.424.709-.314.819.11.11.431-.078.714-.419.283-.341.424-.709.314-.819-.11-.11-.431.078-.714.419m39.563.5c-2.486 2.773-2.696 3.147-1.093 1.949 1.494-1.116 3.024-3.049 2.414-3.049-.184 0-.778.495-1.321 1.1m-41.516 2.176c-1.28 1.31-1.551 1.924-.847 1.924.22 0 .4-.167.4-.371 0-.205.225-.61.5-.902 1.906-2.021 1.859-2.606-.053-.651m302.785-.176c.308.495.676.9.818.9.141 0 .351.36.466.8.195.744 1.1 1.167 1.071.5-.017-.382-1.173-1.722-2.157-2.5-.721-.57-.73-.555-.198.3m-266.083 3.372c-.504.708-.649 1.125-.328.939.965-.555 1.979-1.515 1.979-1.873 0-.725-.787-.279-1.651.934m228.451-.942c0 .182.405.685.9 1.119 2.04 1.788 2.422 1.871 1.159.251-1.241-1.59-2.059-2.135-2.059-1.37m-267.981 1.647c-1.635 1.893-2.193 2.823-1.696 2.823.2 0 1.021-.99 1.824-2.2 1.734-2.611 1.706-2.746-.128-.623M355 166c.341.66.801 1.2 1.022 1.2.221 0 .003-.54-.485-1.2-.488-.66-.948-1.2-1.022-1.2-.075 0 .144.54.485 1.2m-272.736.8c-.39.66-.621 1.2-.514 1.2.108 0 .58-.54 1.05-1.2.47-.66.701-1.2.513-1.2-.187 0-.659.54-1.049 1.2m234.536-.07c0 .182.45.753 1 1.27 1.165 1.095 1.318.614.223-.7-.779-.933-1.223-1.14-1.223-.57m-275.233 2.749c-.509.837-1.114 1.653-1.346 1.815-.288.201-.28.296.026.3.495.007 2.722-3.159 2.429-3.452-.102-.101-.601.5-1.109 1.337m315.246-1.37c-.015.35 2.01 3.491 2.25 3.491.222 0-.881-2.044-1.62-3-.34-.44-.623-.661-.63-.491m-276.989 1.38-.776 1.063 1.063-.776c1.033-.753 1.4-1.389.789-1.363-.165.006-.649.491-1.076 1.076m-1.858 2.411c-2.096 2.386-3.651 4.548-3.43 4.769.127.127.617-.421 1.087-1.219.471-.797.973-1.45 1.117-1.45.37 0 2.574-2.82 2.365-3.028-.095-.095-.607.323-1.139.928m243.234-.032c0 .511 1.535 1.93 1.801 1.664.108-.107-.253-.618-.803-1.133-.549-.516-.998-.755-.998-.531m39.063 1.639c1.669 2.28 1.943 2.46.931.612-.506-.925-1.169-1.777-1.472-1.894-.304-.116-.061.46.541 1.282m-321.617-.121c-.75 1.145-.797 1.414-.246 1.414.22 0 .4-.27.4-.6 0-.33.161-.6.357-.6.197 0 .461-.27.588-.6.368-.96-.392-.693-1.099.386m124.554.961c0 .191.99.357 2.2.368 1.21.01 2.2-.146 2.2-.348 0-.202-.99-.367-2.2-.367-1.21 0-2.2.156-2.2.347m69.6.053c0 .22.9.4 2 .4s2-.18 2-.4c0-.22-.9-.4-2-.4s-2 .18-2 .4m90.772.5c2.138 2.508 2.465 2.853 2.187 2.3-.569-1.129-2.254-3.2-2.604-3.2-.192 0-.005.405.417.9m-153.539.449c.412.368 2.767 1.451 2.767 1.272 0-.231-2.218-1.421-2.647-1.421-.157 0-.211.067-.12.149m-13.078 1.413c-.684.417-1.665 1.362-2.18 2.098-.515.737-1.125 1.472-1.356 1.634-.23.162-.298.297-.151.3.147.003 1.348-1.074 2.668-2.394s2.369-2.399 2.332-2.399c-.037.001-.628.344-1.313.761m205.668.338c.412.715.891 1.3 1.063 1.3.52 0 .366-.304-.75-1.479l-1.063-1.121.75 1.3m-139.422 2.831c-1.65 1.688-2.513 2.689-1.918 2.226 1.7-1.327 5.517-4.874 5.517-5.128 0-.6-.834.072-3.599 2.902m-187.596-1.94c-.346.645-.311.748.186.557.335-.128.609-.484.609-.791 0-.781-.299-.693-.795.234m137.995-.454c0 .311 3.749 3.663 4.096 3.663.084 0-.679-.9-1.696-2-1.794-1.941-2.4-2.361-2.4-1.663m69.622-.037c.012.165.591.75 1.285 1.3 1.221.967 1.207.54-.03-.9-.617-.718-1.294-.934-1.255-.4m82.778.675c0 .097.552.772 1.226 1.5.674.729 1.78 2.243 2.457 3.365.677 1.121 1.59 2.263 2.028 2.536.783.49-.102-1.071-1.498-2.64-.227-.256-1.099-1.471-1.937-2.7-1.282-1.881-2.276-2.781-2.276-2.061m-292.354 3.151c-1.201 1.942-1.052 2.362.19.536.569-.838.95-1.61.845-1.714-.104-.105-.57.426-1.035 1.178m331.154-1.149c0 .394 1.711 3.045 1.866 2.89.092-.091-.219-.819-.689-1.617-.777-1.317-1.177-1.749-1.177-1.273m-118.708.698c.087.261.372.546.633.633.293.098.382-.085.232-.475-.279-.727-1.105-.878-.865-.158m-93.425.592c-.383.382-.329.933.09.933.197 0 .461-.27.588-.6.234-.61-.192-.819-.678-.333M68.664 184c-.39.66-.616 1.2-.502 1.2.322 0 1.838-1.712 1.838-2.075 0-.7-.662-.267-1.336.875m-37.424 1.023c-.941 1.593-.991 1.777-.487 1.777.195 0 .458-.315.586-.7.127-.385.53-1.105.895-1.6.365-.495.479-.9.254-.9-.225 0-.787.64-1.248 1.423m336.042-.404c.245.54.598.981.782.981.185 0 .336.27.336.6 0 .33.195.6.433.6.239 0 .368-.135.287-.3-.94-1.93-1.308-2.486-1.757-2.659-.421-.162-.438-.004-.081.778M66.573 187.1c-.396.605-.965 1.346-1.265 1.648-.301.301-.433.661-.294.799.138.138.52-.108.849-.548.753-1.007 1.811-2.999 1.593-2.999-.09 0-.488.495-.883 1.1m265.827-.558c0 .499 2.099 3.458 2.453 3.458.191 0 .308.135.259.3-.114.39 2.152 3.77 2.376 3.545.193-.193-1.413-2.741-3.432-5.445-1.613-2.16-1.656-2.208-1.656-1.858M29.127 189c-.25.55-.607 1-.791 1-.185 0-.336.18-.336.4 0 .853.682.336 1.319-1 .368-.77.577-1.4.466-1.4-.111 0-.407.45-.658 1m340.473-.81c0 .105.359.78.799 1.5.939 1.541 1.07 1.191.191-.51-.549-1.061-.99-1.502-.99-.99m-176.812 8.308 7.203 7.298 4.023-3.998c2.213-2.199 4.198-4.307 4.411-4.684.213-.377-1.519 1.198-3.849 3.5s-4.398 4.186-4.596 4.186c-.197 0-3.423-3.06-7.168-6.8-3.746-3.74-6.904-6.8-7.019-6.8-.114 0 3.033 3.284 6.995 7.298M63.386 191.7l-.634 1.3.815-1c.785-.963 1.041-1.6.643-1.6-.104 0-.475.585-.824 1.3m-36.168.266c-.245.459-.279.834-.075.834.411 0 .979-1.212.699-1.492-.098-.097-.378.199-.624.658m344.532.134c.356.495 1.012 1.575 1.457 2.4.828 1.535 1.399 2.057.876.8-.805-1.93-2.149-4.1-2.54-4.1-.259 0-.174.37.207.9m-219.593.933c.134.348.243.708.243.8 0 .092.163.167.363.167.199 0 .268-.36.153-.8-.115-.44-.388-.8-.605-.8-.218 0-.287.285-.154.633m-126.1 1.024c-.282.452-.425.909-.317 1.016.107.108.404-.195.66-.673.605-1.13.324-1.41-.343-.343m311.984 1.243c.258.495.723 1.17 1.033 1.5.309.33.838.96 1.174 1.4.335.44.204.035-.293-.9-.496-.935-1.049-1.7-1.229-1.7-.179 0-.326-.27-.326-.6 0-.33-.186-.6-.414-.6-.269 0-.25.315.055.9m-184.841.036c0 .486 18.524 19.384 21.235 21.664 2.268 1.907-.521-1.087-8.035-8.624-4.29-4.304-8.919-9.029-10.286-10.501-2.211-2.378-2.914-2.991-2.914-2.539m91.762 1.364-1.133 1.5 1.457-1.2c1.445-1.191 1.838-1.8 1.161-1.8-.193 0-.862.675-1.485 1.5m-184.929 0-.496 1.1.832-.883c.891-.948 1.03-1.317.495-1.317-.184 0-.559.495-.831 1.1m-35.479.266c-1.095 1.19-1.605 2.634-.93 2.634.233 0 .312-.18.176-.4-.136-.22-.085-.4.112-.4.349 0 1.434-1.995 1.203-2.211-.063-.06-.316.11-.561.377M375.2 198.4c0 .22.191.4.424.4.233 0 .337.14.231.311-.106.171.424 1.288 1.176 2.481 1.715 2.719 1.743 2.382.083-.984-1.174-2.381-1.914-3.235-1.914-2.208m-317 1.337c-.95 1.204-3.807 6.358-3.21 5.791.491-.465 3.804-5.712 3.807-6.028.004-.41-.128-.358-.597.237m175.8 8.15c-4.51 4.551-8.458 8.644-8.772 9.094l-.573.819.936-.8c1.248-1.067 17.209-17.071 17.209-17.256 0-.603-1.601.879-8.8 8.143m-212.427-5.291c-.679 1.498-1.491 2.979-1.804 3.292-.623.624-.754 1.312-.248 1.312.368 0 3.699-6.914 3.45-7.162-.09-.091-.719 1.061-1.398 2.558m321.227.542c0 .186.461.861 1.024 1.5l1.023 1.162-.697-1.5c-.639-1.374-1.35-1.986-1.35-1.162m36.027 1.743c-.015.155.182.74.437 1.3.462 1.014 1.136 1.381 1.136.619 0-.22-.152-.4-.339-.4-.186 0-.534-.405-.773-.9s-.446-.773-.461-.619m-325.453 2.8c-.154.485-.526 1.128-.827 1.429-.652.652-.713 1.29-.123 1.29.233 0 .312-.18.176-.4-.136-.22-.095-.4.09-.4.325 0 1.71-2.075 1.71-2.562 0-.624-.778-.136-1.026.643m327.942 2.462c.486.959.957 1.681 1.047 1.604.255-.219-1.247-3.347-1.608-3.347-.178 0 .074.784.561 1.743M51.2 211.6c-.256.478-.375.959-.265 1.069.11.11.409-.191.665-.669.256-.478.375-.959.265-1.069-.11-.11-.409.191-.665.669m331.679 1.8c.542 1.731 1.341 3.4 1.628 3.4.377 0-.038-1.674-.495-2-.154-.11-.5-.56-.769-1-.269-.44-.433-.62-.364-.4M49.4 215.2c.136.22.09.4-.102.4-.31 0-1.698 2.488-1.698 3.042 0 .445 1.121-.929 1.748-2.142.766-1.481.795-1.7.228-1.7-.233 0-.312.18-.176.4m300.2-.229c0 .544 1.392 3.029 1.698 3.029.192 0 .238.18.102.4-.136.22-.057.4.176.4.534 0 .53-.129-.04-1.381-.256-.561-.626-1.019-.824-1.019-.197 0-.277-.135-.178-.3.1-.165-.069-.532-.376-.816-.307-.283-.558-.425-.558-.313m-334.967 2.086c-.381.993.039 1.129.549.177.245-.459.279-.834.075-.834-.204 0-.485.296-.624.657m226.067.825a5.661 5.661 0 0 0 1.8 0c.495-.095.09-.173-.9-.173s-1.395.078-.9.173m144.622.808c.068.489.249 1.014.401 1.166.424.425.317-.777-.13-1.456-.314-.476-.37-.416-.271.29m-138.122.067c0 .444 1.231.946 1.546.631.127-.127-.034-.399-.358-.604-.748-.473-1.188-.483-1.188-.027m-200.528 1.862c-.94 1.97-.808 2.305.175.443.446-.846.74-1.608.654-1.695-.087-.086-.46.477-.829 1.252m305.362-1.219c0 .22.344 1.03.766 1.8.422.77.766 1.22.766 1 0-.22-.344-1.03-.766-1.8-.422-.77-.766-1.22-.766-1m-204.049 1.761c-.762.639-1.295 1.251-1.185 1.36.11.11.905-.413 1.767-1.161.861-.748 1.394-1.36 1.185-1.36-.21 0-1.005.522-1.767 1.161m104.032 1.139a769.72 769.72 0 0 0 1.905 2.1c.103.11-.04-.25-.317-.8-.62-1.233-2.422-3.2-2.931-3.2-.207 0 .398.855 1.343 1.9m-106.263 1.466c-.501.544-1.354 2.062-1.354 2.408 0 .718.727.019 1.304-1.253.729-1.608.742-1.907.05-1.155m208.403.467c.134.348.243.708.243.8 0 .092.202.167.449.167.33 0 .331-.142.003-.537-.245-.295-.327-.655-.182-.8.145-.145.034-.263-.246-.263-.3 0-.41.26-.267.633m-99.873 1.367c.115.44.368.8.563.8.418 0 .432-.128.11-.967-.352-.919-.92-.778-.673.167m-210.441.633c-.376.978-.294 1.075.357.424.68-.68.767-1.057.243-1.057-.197 0-.467.285-.6.633m-33.201.402c-.363.945-.292 1.443.165 1.161.223-.138.312-.403.197-.589-.115-.186.008-.411.274-.5.339-.113.352-.241.044-.431-.241-.149-.547.012-.68.359m244.564 2.065c.018.877.782 1.459.788.6.003-.495-.174-.9-.394-.9-.22 0-.397.135-.394.3m102.951 4.333c.134.348.243.708.243.8 0 .092.163.167.363.167.199 0 .268-.36.153-.8-.115-.44-.388-.8-.605-.8-.218 0-.287.285-.154.633m-317.473.567c-.115.44-.046.8.153.8.2 0 .363-.075.363-.167 0-.092.109-.452.243-.8.133-.348.064-.633-.154-.633-.217 0-.49.36-.605.8m350.768 1.4c.075.44.14.935.143 1.1.01.586.805.29.805-.3 0-.33-.167-.6-.371-.6s-.448-.225-.542-.5c-.095-.275-.11-.14-.035.3m-136.947 1.6c-.497 1.619-.055 1.886.631.381.548-1.202.59-1.781.131-1.781-.183 0-.526.63-.762 1.4m-110.105-.019c0 .542.976 2.201 1.388 2.359.328.126.285-.247-.137-1.178-.518-1.142-1.251-1.834-1.251-1.181m248 1.795c0 .207.183.49.407.628.223.138.31.406.193.596-.117.19-.03.458.193.596.464.286.499-.012.155-1.296-.236-.879-.948-1.272-.948-.524M38.08 240.68c-.592 1.929-.305 2.215.32.32.264-.799.402-1.531.307-1.626-.095-.096-.377.492-.627 1.306m108.32-.806c0 .509 1.967 2.311 3.2 2.931.55.277.91.42.8.317-2.545-2.366-4-3.548-4-3.248m105.194 1.132c-.743.767-1.169 1.394-.947 1.394.517 0 2.76-2.327 2.496-2.59-.109-.109-.806.429-1.549 1.196m-100.204 2.842c.357.356.769.526.917.378.149-.148.005-.437-.319-.642-.945-.597-1.301-.44-.598.264m95.31.028c-.722.188-.986.924-.333.924.692 0 1.633-.486 1.633-.843 0-.373-.148-.382-1.3-.081m115.713-.009c-.021.76.445 1.733.83 1.733.524 0 .436-.542-.23-1.424-.323-.427-.593-.566-.6-.309M243.8 244.8c-.136.22.123.4.576.4.453 0 .824-.18.824-.4 0-.22-.259-.4-.576-.4-.317 0-.688.18-.824.4m-240.2 3c0 .33.18.6.4.6.22 0 .4-.27.4-.6 0-.33-.18-.6-.4-.6-.22 0-.4.27-.4.6M396 251c0 .33.18.6.4.6.22 0 .4-.27.4-.6 0-.33-.18-.6-.4-.6-.22 0-.4.27-.4.6m-363.6 7.2c0 .33.18.6.4.6.22 0 .4-.27.4-.6 0-.33-.18-.6-.4-.6-.22 0-.4.27-.4.6m122 1c0 .506.817.506 1.6 0 .468-.302.357-.389-.5-.394-.605-.003-1.1.174-1.1.394m87.339.054c.529.307.863.304 1.18-.013.321-.321.122-.438-.739-.429-1.034.011-1.089.065-.441.442M152 259.6c0 .22.27.4.6.4.33 0 .6-.18.6-.4 0-.22-.27-.4-.6-.4-.33 0-.6.18-.6.4m-120 .6c0 .33.18.6.4.6.22 0 .4-.27.4-.6 0-.33-.18-.6-.4-.6-.22 0-.4.27-.4.6m213.604-.3c.002.165.767.612 1.7.993 1.196.489 1.46.523.896.114a25.798 25.798 0 0 1-1.283-.993c-.563-.482-1.319-.548-1.313-.114m-98.776 2.751c-1.133 1.018-1.946 1.963-1.808 2.1.139.137.643-.24 1.121-.838.477-.598 1.486-1.543 2.241-2.1.756-.557 1.178-1.013.939-1.013s-1.361.833-2.493 1.851M367.2 261.8c0 .33.18.6.4.6.22 0 .4-.27.4-.6 0-.33-.18-.6-.4-.6-.22 0-.4.27-.4.6m-116.463 1.711c.956 1.149 1.815 2.089 1.911 2.089.543 0-1.24-2.481-2.342-3.258-1.248-.88-1.229-.828.431 1.169m-107.088 3.141c-.666 1.462-.375 1.543.44.122.371-.646.531-1.174.357-1.174-.175 0-.533.473-.797 1.052M.093 270.8c0 .77.082 1.085.183.7.1-.385.1-1.015 0-1.4-.101-.385-.183-.07-.183.7m142.421 1.8c.003 1.1.081 1.503.173.895.092-.609.09-1.509-.005-2-.095-.492-.171.005-.168 1.105m226.787 2c.004.88.086 1.193.182.695.096-.497.092-1.217-.008-1.6-.1-.382-.179.025-.174.905M30.124 277c.002 1.32.077 1.812.166 1.093.089-.719.087-1.799-.004-2.4s-.164-.013-.162 1.307m224.168-1.558c-.161.16-.292.567-.292.905 0 .45.118.495.445.168.245-.245.376-.652.292-.905-.085-.253-.285-.329-.445-.168m145.459 6.158c0 2.53.065 3.565.145 2.3a44.671 44.671 0 0 0 0-4.6c-.08-1.265-.145-.23-.145 2.3m-369.617 1.2c0 1.65.071 2.325.157 1.5.087-.825.087-2.175 0-3-.086-.825-.157-.15-.157 1.5m114.266-2.4c0 .446.626 1.097 3.171 3.3 1.802 1.559 2.429 1.826 2.429 1.033 0-.256-.105-.361-.234-.233-.272.273-1.309-.514-3.393-2.574-.82-.811-1.389-1.576-1.265-1.7.124-.124.015-.226-.241-.226-.257 0-.467.18-.467.4m105.811 2.313-.788 1.087.966-.634c.984-.646 1.55-1.576.944-1.553-.183.006-.688.501-1.122 1.1m-2.111 1.375c-.495.239-.9.597-.9.797 0 .199-.18.251-.4.115-.22-.136-.4-.057-.4.176 0 .533.131.53 1.359-.03.732-.334 1.932-1.706 1.328-1.519-.048.015-.492.222-.987.461m121.201 2.112c.004.88.086 1.193.182.695.096-.497.092-1.217-.008-1.6-.1-.382-.179.025-.174.905m-216.324-.162c-.123.199.236.362.799.362 1.226 0 1.325-.228.224-.516-.439-.115-.9-.046-1.023.154m89.328.245c.497.096 1.217.092 1.6-.008.382-.1-.025-.179-.905-.174-.88.004-1.193.086-.695.182M185.6 298.2c0 7.6.142 11.8.4 11.8s.4-4.2.4-11.8c0-7.6-.142-11.8-.4-11.8s-.4 4.2-.4 11.8m27.774-.4c.001 5.72.057 8.004.125 5.076.069-2.928.068-7.608 0-10.4-.069-2.792-.125-.396-.125 5.324M.101 290.6c.004.88.086 1.193.182.695.096-.497.092-1.217-.008-1.6-.1-.382-.179.025-.174.905m399.192 1.8c0 .77.082 1.085.183.7.1-.385.1-1.015 0-1.4-.101-.385-.183-.07-.183.7m-31.881 8.517c-.171.395-.199.83-.061.967.406.406.733-.164.546-.953-.165-.698-.187-.699-.485-.014M32 303.4c0 .33.18.6.4.6.22 0 .4-.27.4-.6 0-.33-.18-.6-.4-.6-.22 0-.4.27-.4.6m364.212 9.117c-.171.395-.199.83-.061.967.406.406.733-.164.546-.953-.165-.698-.187-.699-.485-.014m-209.012 4.93c0 .22.264.749.587 1.177.323.427.588.596.588.376 0-.22-.265-.749-.588-1.176-.323-.428-.587-.597-.587-.377m1.881 3.108c.983 1.307 4.473 3.847 5.27 3.836.357-.005.05-.304-.683-.665-.732-.361-2.082-1.434-3-2.385-1.801-1.865-2.754-2.337-1.587-.786m20.381.576c-.364.403-.662.854-.662 1.004 0 .421 1.56-.654 1.78-1.226.287-.748-.356-.62-1.118.222M206.8 323.2c-.77.422-1.13.77-.8.774.33.005 1.05-.344 1.6-.774 1.257-.983.996-.983-.8 0m-10.4 2c0 .22.371.4.824.4.453 0 .712-.18.576-.4-.136-.22-.507-.4-.824-.4-.317 0-.576.18-.576.4m4.8 0c0 .22.36.4.8.4.44 0 .8-.18.8-.4 0-.22-.36-.4-.8-.4-.44 0-.8.18-.8.4m157.664 3.019c-.577 1.266-.577 1.381.003 1.381.256 0 .355-.111.219-.248-.136-.136.014-.509.333-.828.641-.641.768-1.324.245-1.324-.184 0-.544.458-.8 1.019M40 328.4c0 .22.191.4.424.4.233 0 .312.18.176.4-.136.22-.057.4.176.4.491 0 .511-.107.181-.967-.268-.698-.957-.866-.957-.233m317.457 3.05c-.943 1.976-.65 2.054.461.123.498-.865.754-1.573.568-1.573-.186 0-.649.652-1.029 1.45m-315.546.524c.371.646.729 1.119.796 1.052.217-.217-.824-2.226-1.153-2.226-.174 0-.014.528.357 1.174m2.162 4.226c.447.981 1.127 1.361 1.127.629 0-.366-1.102-1.629-1.42-1.629-.09 0 .042.45.293 1m310.594.067c-.383.382-.329.933.09.933.197 0 .461-.27.588-.6.234-.61-.192-.819-.678-.333M45.6 338.621c0 .122.45.884 1 1.693 1.207 1.777 1.339 1.329.167-.567-.782-1.266-1.167-1.637-1.167-1.126m307.632.518c-.653 1.221-.518 1.561.209.524.352-.503.547-1.009.432-1.123-.114-.115-.403.155-.641.599m34.211-.106c-.376.978-.294 1.075.357.424.68-.68.767-1.057.243-1.057-.197 0-.467.285-.6.633m-375.843.396c0 .125.27.498.6.828.651.651.733.554.357-.424-.228-.595-.957-.903-.957-.404m1.228 1.971c0 .22.258.85.572 1.4.314.55.572.82.572.6 0-.22-.258-.85-.572-1.4-.314-.55-.572-.82-.572-.6m35.753 2.027c1.455 2.22 2.467 2.971 1.332.988-.562-.981-1.261-1.864-1.554-1.962-.356-.119-.282.205.222.974m336.039 1.733c-.568 1.122-.844 2.04-.613 2.04.451 0 2.137-3.59 1.83-3.896-.101-.101-.648.734-1.217 1.856m-369.82.621c0 .511.973 2.219 1.264 2.219.523 0 .396-.683-.245-1.324-.319-.319-.469-.692-.333-.828.136-.137.037-.248-.219-.248-.257 0-.467.082-.467.181m332.447 1.895c-1.248 1.277-1.551 1.924-.9 1.924.191 0 .823-.72 1.406-1.6 1.279-1.933 1.149-2.016-.506-.324m-295.427.258c.91 1.549 1.695 2.285 2.054 1.926.14-.14-.441-.929-1.29-1.754l-1.543-1.499.779 1.327M16.717 349.1c.656 1.573 2.15 4.166 2.309 4.007.179-.179-2.171-4.707-2.443-4.707-.087 0-.026.315.134.7m365.163 1.38c-.388.676-.623 1.311-.522 1.411.101.101.48-.39.842-1.091.857-1.657.597-1.917-.32-.32m-327.274.832c.386.612.803 1.012.926.889s-.193-.623-.702-1.112l-.926-.889.702 1.112m289.992-.11c-.4.442-.632.897-.516 1.013.115.115.508-.246.873-.803.797-1.216.638-1.31-.357-.21M56 353.122c0 .176.63.932 1.4 1.678 1.718 1.666 1.863 1.098.178-.7-1.252-1.336-1.578-1.538-1.578-.978m285.9 1.057c-1.531 1.918-1.374 2.243.3.621.77-.746 1.4-1.502 1.4-1.678 0-.671-.638-.274-1.7 1.057m37.316.721-.932 1.7 1.258-1.372c1.251-1.364 1.556-2.028.932-2.028-.18 0-.746.765-1.258 1.7M19.2 353.928c0 .18.563.945 1.251 1.7l1.25 1.372-.95-1.697c-.879-1.568-1.551-2.164-1.551-1.375m2.409 3.518c.012.467 1.571 2.454 1.582 2.017.005-.185-.351-.794-.791-1.354-.44-.559-.796-.858-.791-.663m38.391.255c0 .071.855.829 1.9 1.683 1.747 1.428 1.803 1.448.7.25-1.056-1.147-2.6-2.295-2.6-1.933m317.2.499c0 .33-.141.6-.314.6-.172 0-.632.54-1.022 1.2-1.054 1.784-.138 1.453 1.083-.391 1.16-1.754 1.243-2.009.653-2.009-.22 0-.4.27-.4.6m-352.214 4.346c.61.8 1.195 1.454 1.301 1.454.367 0-1.449-2.587-1.928-2.747-.265-.088.017.494.627 1.293m307.792.927-1.378 1.473 1.7-1.307c.935-.718 1.7-1.381 1.7-1.473 0-.512-.808.01-2.022 1.307m41.083-.406c-.407.543-.656 1.071-.554 1.173.101.102.493-.286.871-.862.889-1.357.644-1.597-.317-.311m-307.467.727c.743.767 1.44 1.305 1.549 1.196.264-.263-1.979-2.59-2.496-2.59-.222 0 .204.627.947 1.394m-39.162 1.97c.889 1.507 2.325 2.45 1.563 1.027-.233-.435-.576-.791-.762-.791-.187 0-.434-.36-.549-.8-.115-.44-.4-.8-.633-.8-.233 0-.062.614.381 1.364m302.217.491-.75 1.03 1.05-.689c.578-.378 1.051-.847 1.051-1.042 0-.648-.591-.341-1.351.701m42.418-.788c-.599.599-.294 1.453.333.933.33-.274.6-.656.6-.849 0-.414-.553-.464-.933-.084m-302.667.687c0 .085.495.473 1.1.862l1.1.708-.762-.862c-.674-.763-1.438-1.139-1.438-.708m2.4 1.794c0 .549 1.103 1.333 1.339.951.115-.186-.139-.556-.565-.822-.426-.266-.774-.324-.774-.129m255.015.442c-1.464.961-2.343 2.321-1.055 1.631.462-.247.84-.623.84-.835 0-.212.259-.386.576-.386.317 0 .695-.192.84-.427.472-.762-.024-.755-1.201.017m41.923 1.427c-.372.97.147 1.145.644.217.309-.578.315-.834.02-.834-.235 0-.534.278-.664.617m-337.249 1.049c.085.256.583.75 1.106 1.097l.951.631-.719-1.097c-.714-1.089-1.636-1.524-1.338-.631m291.411.563c-.605.328-1.1.681-1.1.784 0 .386.632.144 1.6-.613 1.189-.93 1.011-.991-.5-.171m43.69 1.071-.96 1.3 1.263-1c1.243-.984 1.621-1.6.982-1.6-.178 0-.757.585-1.285 1.3m-289.19-.338c0 .089 1.62 1.247 3.6 2.573 1.98 1.327 3.6 2.261 3.6 2.077 0-.185-.855-.833-1.9-1.439-1.045-.607-1.99-1.218-2.1-1.358-.634-.804-3.2-2.291-3.2-1.853m-43.6 1.224c0 .385 2.499 3.014 2.864 3.014.442 0-2.114-3.182-2.564-3.193-.165-.004-.3.077-.3.179m284.856 1.048c-.52.421-.779.766-.577.766.536 0 1.955-1.1 1.72-1.333-.109-.109-.624.146-1.143.567m45.024 1.3c-.337.514-2.652 2.977-5.146 5.474-2.494 2.498-4.084 4.192-3.534 3.766 1.249-.967 10-9.692 10-9.97 0-.533-.772-.106-1.32.73m-48.78.892c-1.954 1.017-2.726 2.133-.9 1.301.55-.25 1-.607 1-.791 0-.185.248-.336.551-.336.303 0 .775-.27 1.049-.6.641-.772.565-.753-1.7.426m-228.501 1.372c.135.219.641.601 1.123.849l.878.452-.883-.85c-.922-.886-1.542-1.136-1.118-.451m-47.799.671c0 .418 4.426 4.638 4.641 4.424.197-.198-4.04-4.693-4.424-4.693-.119 0-.217.121-.217.269m271.824.744c-.428.323-.597.587-.377.587.22 0 .749-.264 1.177-.587.427-.323.596-.588.376-.588-.22 0-.749.265-1.176.588m-220.824.461c.66.354 1.626.974 2.147 1.379.521.405 1.106.638 1.3.518.194-.12.353-.028.353.205 0 .233.191.424.424.424.88 0-.165-.86-2.442-2.009-2.435-1.229-3.915-1.658-1.782-.517m216.9 1.358c-1.081.629-.83 1.21.3.695.55-.25 1-.607 1-.791 0-.44-.435-.408-1.3.096m-6.688 3.552c-.324.205-.491.47-.371.59.119.12.564-.045.988-.365.844-.638.331-.824-.617-.225m-254.031.632C46.681 386.9 47.74 388 48.07 388c.74 0 .237-.74-1.37-2.017-.935-.743-1.439-.998-1.119-.567m55.219.141c0 .444 1.231.946 1.546.631.127-.127-.034-.399-.358-.604-.748-.473-1.188-.483-1.188-.027m196.812.027c-.324.205-.485.477-.358.604.315.315 1.546-.187 1.546-.631 0-.456-.44-.446-1.188.027m53.631 2.039c-.526.438-.879.875-.784.969.095.095.705-.263 1.357-.795.651-.533 1.004-.969.784-.969-.22-.001-.83.357-1.357.795m-301.394 1.722c.76 1.042 1.351 1.349 1.351.701 0-.195-.473-.664-1.051-1.042l-1.05-.689.75 1.03m59.527.068c.882.666 1.424.754 1.424.23 0-.385-.973-.851-1.733-.83-.257.007-.118.277.309.6m238.968.553c-.519.421-.821.889-.671 1.04.366.367 1.029-.076 1.539-1.028.523-.977.326-.98-.868-.012m-296.173 1.443c.822.621 1.281.523.845-.182-.145-.235-.568-.421-.94-.414-.593.011-.582.084.095.596m292.924 1.255c-.822.585-1.495 1.224-1.495 1.419 0 .195.72-.224 1.6-.931 1.433-1.152 1.819-1.552 1.495-1.552-.057 0-.777.479-1.6 1.064m-289.726 1.094c.864.79 1.671 1.335 1.795 1.212.237-.238-1.225-1.504-2.564-2.22-.44-.236-.094.218.769 1.008m65.831-.158c0 .22.27.4.6.4.33 0 .6-.18.6-.4 0-.22-.27-.4-.6-.4-.33 0-.6.18-.6.4m156 0c0 .22.27.4.6.4.33 0 .6-.18.6-.4 0-.22-.27-.4-.6-.4-.33 0-.6.18-.6.4m64.415 1.639c-.762.639-1.212 1.16-1 1.159.539-.003 2.829-1.883 2.585-2.123-.11-.108-.823.325-1.585.964m-283.015.973c.66.541 1.38.984 1.6.984.22 0-.14-.443-.8-.984-.66-.541-1.38-.983-1.6-.983-.22 0 .14.442.8.983M137.2 398c0 .22.27.4.6.4.33 0 .6-.18.6-.4 0-.22-.27-.4-.6-.4-.33 0-.6.18-.6.4m199.989.286c-1.336.927-2.605 2.114-2.259 2.114.517 0 3.05-1.793 3.249-2.3.253-.645.191-.633-.99.186m-274.789.481c0 .328 1.746 1.633 2.186 1.633.118 0 .214-.18.214-.4 0-.22-.27-.4-.6-.4-.33 0-.6-.161-.6-.357 0-.197-.27-.461-.6-.588-.33-.126-.6-.076-.6.112m270.4 2.481c-1.727 1.041-1.788 1.097-1.505 1.381.126.125.561-.051.967-.393a39.96 39.96 0 0 1 1.538-1.216c1.174-.873.612-.745-1 .228m-265.688.664c.757.757 5.066 3.291 5.582 3.283.168-.002-.504-.534-1.494-1.182-.99-.648-1.894-1.141-2.009-1.095-.116.045-.644-.323-1.176-.818-1.138-1.06-1.943-1.228-.903-.188M156 401.6c0 .22.27.4.6.4.33 0 .6-.18.6-.4 0-.22-.27-.4-.6-.4-.33 0-.6.18-.6.4m85.92.08c.373.373.587.373.96 0s.267-.48-.48-.48-.853.107-.48.48m-82.72.32c0 .22.27.4.6.4.33 0 .6-.18.6-.4 0-.22-.27-.4-.6-.4-.33 0-.6.18-.6.4m80 0c0 .22.27.4.6.4.33 0 .6-.18.6-.4 0-.22-.27-.4-.6-.4-.33 0-.6.18-.6.4m-76.8.4c0 .22.36.4.8.4.44 0 .8-.18.8-.4 0-.22-.36-.4-.8-.4-.44 0-.8.18-.8.4m73.2 0c0 .22.259.4.576.4.317 0 .688-.18.824-.4.136-.22-.123-.4-.576-.4-.453 0-.824.18-.824.4m-59.295 1.483c.497.096 1.217.092 1.6-.008.382-.1-.025-.179-.905-.174-.88.004-1.193.086-.695.182m45.795-.007c.385.1 1.015.1 1.4 0 .385-.101.07-.183-.7-.183s-1.085.082-.7.183m-38.395.411c.609.092 1.509.09 2-.005.492-.095-.005-.171-1.105-.168-1.1.003-1.503.081-.895.173m31.395-.005a5.661 5.661 0 0 0 1.8 0c.495-.095.09-.173-.9-.173s-1.395.078-.9.173m-17.6.414c1.375.078 3.625.078 5 0s.25-.142-2.5-.142-3.875.064-2.5.142m127.513 1.178c-1.224.663-2.466 1.726-2.015 1.726.452 0 1.93-.888 2.752-1.654.967-.901.821-.915-.737-.072m-250.772.289c.112.291.652.733 1.2.983 1.228.56 1.359.563 1.359.03 0-.233-.18-.312-.4-.176-.22.136-.4.085-.4-.112 0-.198-.441-.561-.981-.806-.782-.357-.94-.34-.778.081m245.959 2.468c-.88.526-1.458.959-1.284.962.438.01 3.484-1.565 3.484-1.801 0-.349-.582-.128-2.2.839m-241.223.132c.129.208.862.586 1.629.839s1.394.604 1.394.78c0 .392 4.001 2.151 4.273 1.878.108-.107-.156-.383-.586-.614-.43-.23-.895-.304-1.034-.165-.139.139-.253.062-.253-.172 0-.233-.225-.516-.5-.629-.275-.114-1.548-.676-2.828-1.251-1.281-.574-2.223-.874-2.095-.666m237.299 1.818c-.319.319-.692.469-.828.333-.137-.136-.248-.037-.248.219 0 .58.115.58 1.381.003.561-.256 1.019-.616 1.019-.8 0-.523-.683-.396-1.324.245M311 413.229c-.88.423-1.15.657-.6.52 1.133-.282 3.212-1.324 2.6-1.303-.22.007-1.12.36-2 .783M90.4 414.4c.972.843 1.6 1.025 1.6.464 0-.309-1.722-1.264-2.28-1.264-.133 0 .173.36.68.8m217.1.229c-.605.328-1.1.681-1.1.784 0 .418 1.181.148 1.724-.394.319-.319.692-.469.828-.333.137.136.248.037.248-.219 0-.603-.351-.57-1.7.162m-8 3.247c-.385.1-.7.349-.7.553 0 .566.786.442 1.457-.229.608-.608.502-.653-.757-.324m-3.572 1.488c-.589.308-1.156.475-1.26.371-.103-.104-.307.004-.452.238-.335.544.14.54 1.724-.012.693-.242 1.26-.602 1.26-.8 0-.461.001-.461-1.272.203M111.7 422.276c.385.1.7.349.7.553 0 .204.27.371.6.371.924 0 .71-.677-.3-.948-.495-.133-1.08-.223-1.3-.2-.22.022-.085.123.3.224m174.3.524c0 .22.27.4.6.4.33 0 .6-.18.6-.4 0-.22-.27-.4-.6-.4-.33 0-.6.18-.6.4m-138 8.4c0 .22.371.4.824.4.453 0 .712-.18.576-.4-.136-.22-.507-.4-.824-.4-.317 0-.576.18-.576.4m28.1 3.076c.385.1 1.015.1 1.4 0 .385-.101.07-.183-.7-.183s-1.085.082-.7.183m8 .411a8.899 8.899 0 0 0 2.2 0c.605-.092.11-.167-1.1-.167-1.21 0-1.705.075-1.1.167m30.405 0c.609.092 1.509.09 2-.005.492-.095-.005-.171-1.105-.168-1.1.003-1.503.081-.895.173" fill="#cbcbcb"/><path d="M189.7.287a8.899 8.899 0 0 0 2.2 0c.605-.092.11-.167-1.1-.167-1.21 0-1.705.075-1.1.167m16.2.002c.715.089 1.885.089 2.6 0 .715-.088.13-.161-1.3-.161-1.43 0-2.015.073-1.3.161M169.6 1.6c-1.384.291-1.386.295-.2.341.66.026 1.47-.128 1.8-.341.666-.43.445-.43-1.6 0m2.9-.124c.385.1 1.015.1 1.4 0 .385-.101.07-.183-.7-.183s-1.085.082-.7.183m56.3.118c.33.217 1.035.397 1.567.4 1.284.008.958-.219-.767-.536-.985-.181-1.222-.14-.8.136m3.4.406c.44.189 1.07.344 1.4.344.378 0 .304-.127-.2-.344-.44-.189-1.07-.344-1.4-.344-.378 0-.304.127.2.344m-83.8 3.278c-.99.216-1.948.534-2.129.707-.181.172.569.111 1.667-.136s2.131-.584 2.296-.749c.164-.165.224-.281.133-.257-.092.023-.977.219-1.967.435m103.786.538c1.093.3 2.054.477 2.138.394.2-.2-2.755-1.015-3.524-.972-.33.018.294.279 1.386.578M135.6 9.089l-1.555.58c-.526.194-.869.441-.762.547.218.218 3.117-.918 3.117-1.221 0-.107-.045-.181-.1-.163-.055.017-.37.133-.7.257m137.2 3.89c0 .11.54.48 1.2.821.66.341 1.2.531 1.2.421 0-.11-.54-.48-1.2-.821-.66-.341-1.2-.531-1.2-.421m-160.757 9.444c-.526.438-.872.882-.768.985.104.104.611-.26 1.126-.81 1.123-1.194.961-1.273-.358-.175M289.6 25c1.417 1.43 2.667 2.6 2.777 2.6.11 0-.96-1.17-2.377-2.6-1.417-1.43-2.667-2.6-2.777-2.6-.11 0 .96 1.17 2.377 2.6M194 29.6c-.401.259 1.635.39 6.124.394 4.382.004 6.637-.133 6.476-.394-.321-.52-11.795-.52-12.6 0m-9.2.4c-.758.49.47.49 2 0 .98-.314.976-.321-.2-.354-.66-.019-1.47.141-1.8.354m28.6 0c1.176.506 2.982.506 2.2 0-.33-.213-1.14-.378-1.8-.366-1.03.019-1.087.071-.4.366m-34.2.4c-.764.494.058.494 1.6 0l1-.32-1-.034c-.55-.019-1.27.141-1.6.354m40 0c1.436.46 2.084.46 1.8 0-.136-.22-.822-.382-1.524-.36-1.219.038-1.231.054-.276.36m-44.4.421c-.43.293-.146.333 1 .141 1.984-.332 2.304-.564.767-.556-.642.003-1.437.19-1.767.415m47.633-.274c.092.081.887.267 1.767.415 1.146.192 1.43.152 1-.141-.54-.368-3.168-.628-2.767-.274m-52.733.929c.385.1 1.015.1 1.4 0 .385-.101.07-.183-.7-.183s-1.085.082-.7.183m-19.3 3.551-1.4.566 1.4-.242c1.587-.275 3.052-.94 2-.908-.33.01-1.23.273-2 .584m96.8-.457c0 .24 4.138 1.425 4.325 1.238.085-.084-.797-.436-1.958-.781-2.334-.693-2.367-.699-2.367-.457M99.188 39.222c-.242.452-.381 1-.308 1.217.072.218.338-.152.591-.822.526-1.392.368-1.612-.283-.395M264.4 42.106c0 .088.765.768 1.7 1.511.935.743 1.446 1.035 1.136.648-.585-.728-2.836-2.442-2.836-2.159m37.029 1.094c.147.55.435 1.27.638 1.6.258.417.29.295.104-.4-.147-.55-.435-1.27-.638-1.6-.258-.417-.29-.295-.104.4M127.4 50c-.341.66-.531 1.2-.421 1.2.11 0 .48-.54.821-1.2.341-.66.531-1.2.421-1.2-.11 0-.48.54-.821 1.2m176.2 2.953c0 .33.18.711.4.847.22.136.4-.023.4-.353 0-.33-.18-.711-.4-.847-.22-.136-.4.023-.4.353m-208.112.78c-.446 1.133-.373 1.712.15 1.189.24-.24.37-.771.288-1.18-.144-.716-.16-.716-.438-.009M274 59.4c0 .55.18 1 .4 1 .22 0 .4-.45.4-1s-.18-1-.4-1c-.22 0-.4.45-.4 1M95.212 62.6c0 .44.175 1.07.388 1.4.321.497.388.462.388-.2 0-.44-.175-1.07-.388-1.4-.321-.497-.388-.462-.388.2m32.055 7.42c.234.672.5 1.147.59 1.056.199-.198-.556-2.276-.826-2.276-.104 0 .002.549.236 1.22m144.712.235c-.221.581-.327 1.13-.236 1.221.09.091.356-.384.59-1.056.52-1.492.206-1.638-.354-.165m29.307 6.006c-.247.804-.29 1.299-.096 1.1.392-.4.999-2.561.72-2.561-.096 0-.378.658-.624 1.461M98.433 77.474c-.049.708.757 2.669.998 2.428.115-.115-.055-.815-.378-1.555-.323-.741-.602-1.134-.62-.873M102.4 86.8c.449.88.906 1.6 1.016 1.6.11 0-.167-.72-.616-1.6-.449-.88-.906-1.6-1.016-1.6-.11 0 .167.72.616 1.6m39.774 4.358c.149.241.642.637 1.097.88.591.316.749.318.555.004-.149-.241-.642-.637-1.097-.88-.591-.316-.749-.318-.555-.004M253.2 94.47c-1.532 1.418-1.714 1.669-.6.827 1.484-1.121 3.334-2.919 2.962-2.88-.089.01-1.152.934-2.362 2.053m-108.4-1.144c0 .11.9.953 2 1.874 1.1.921 2 1.584 2 1.474 0-.11-.9-.953-2-1.874-1.1-.921-2-1.584-2-1.474M289.2 99.2c-.47.66-.764 1.2-.654 1.2.11 0 .584-.54 1.054-1.2.47-.66.764-1.2.654-1.2-.11 0-.584.54-1.054 1.2m-125.565 7.278c.349.287.74.792.869 1.122.189.486.239.47.264-.086.018-.377-.373-.882-.868-1.122-.763-.37-.804-.357-.265.086m71.303.539c-.299.779-.203.866 1.263 1.153l1.199.235-1.127-.445c-.707-.279-1.046-.652-.912-1.002.118-.307.124-.558.014-.558s-.307.278-.437.617m-90.438 8.995c-.935.415-1.7.843-1.7.951 0 .262 2.897-.938 3.38-1.4.512-.489.307-.434-1.68.449m109.9-.251c0 .088.585.356 1.3.594 1.189.397 1.234.383.524-.16-.716-.548-1.824-.812-1.824-.434m62.8 8.039c.746.77 1.447 1.4 1.557 1.4.11 0-.411-.63-1.157-1.4-.746-.77-1.447-1.4-1.557-1.4-.11 0 .411.63 1.157 1.4m-235.622.5-1.378 1.5 1.5-1.378c1.396-1.284 1.684-1.622 1.378-1.622-.066 0-.741.675-1.5 1.5m244.216 7.602c2.636 2.694 4.88 4.898 4.985 4.898.105 0-.662-.866-1.704-1.924-1.042-1.058-1.8-2.048-1.685-2.2.116-.152.085-.181-.069-.064-.153.116-1.638-1.098-3.3-2.698-1.661-1.601-.864-.706 1.773 1.988M66.575 139.3l-1.175 1.3 1.3-1.175c.715-.646 1.3-1.231 1.3-1.3 0-.309-.33-.037-1.425 1.175m267.025.9c.746.77 1.447 1.4 1.557 1.4.11 0-.411-.63-1.157-1.4-.746-.77-1.447-1.4-1.557-1.4-.11 0 .411.63 1.157 1.4m-39.6 2.325c0 .069.585.654 1.3 1.3l1.3 1.175-1.175-1.3c-1.095-1.212-1.425-1.484-1.425-1.175m-191.594 2.469c-.743.767-1.274 1.456-1.179 1.531.095.075.779-.552 1.519-1.394 1.683-1.913 1.466-2-.34-.137m197.903 3.43c.94 1.004 1.57 1.978 1.4 2.164-.17.187-.084.211.191.053.663-.382.754-.236-1.4-2.258l-1.9-1.783 1.709 1.824m40.891.24c0 .218.495.833 1.1 1.366l1.1.97-1-1.2c-.55-.66-1.045-1.275-1.1-1.367-.055-.091-.1.012-.1.231m-36.6 4.136c.859.88 1.652 1.6 1.762 1.6.11 0-.503-.72-1.362-1.6-.859-.88-1.652-1.6-1.762-1.6-.11 0 .503.72 1.362 1.6m3.783 3.7c1.658 1.766 2.017 2.084 2.017 1.783 0-.064-.855-.919-1.9-1.9l-1.9-1.783 1.783 1.9m4.017 4.425c0 .069.585.654 1.3 1.3l1.3 1.175-1.175-1.3c-1.095-1.212-1.425-1.484-1.425-1.175m-142.367 14.796c.092.067.707.437 1.367.824l1.2.702-.944-.823c-.52-.453-1.135-.824-1.367-.824-.232 0-.347.054-.256.121M71.544 179.5c-1.151 1.389-1.638 2.1-1.44 2.1.11 0 .682-.63 1.269-1.4 1.09-1.429 1.222-1.968.171-.7m257.256 1.3c.47.66.944 1.2 1.054 1.2.11 0-.184-.54-.654-1.2-.47-.66-.944-1.2-1.054-1.2-.11 0 .184.54.654 1.2M180 184.2c.746.77 1.447 1.4 1.557 1.4.11 0-.411-.63-1.157-1.4-.746-.77-1.447-1.4-1.557-1.4-.11 0 .411.63 1.157 1.4m3.2 3.125c0 .069.585.654 1.3 1.3l1.3 1.175-1.175-1.3c-1.095-1.212-1.425-1.484-1.425-1.175m32.175 1.175-1.175 1.3 1.3-1.175c.715-.646 1.3-1.231 1.3-1.3 0-.309-.33-.037-1.425 1.175m-152.79 3.6c-.617.935-.865 1.489-.553 1.231.601-.497 2.132-2.931 1.844-2.931-.093 0-.674.765-1.291 1.7m148.79.4-1.175 1.3 1.3-1.175c.715-.646 1.3-1.231 1.3-1.3 0-.309-.33-.037-1.425 1.175m33.2 4-1.175 1.3 1.3-1.175c.715-.646 1.3-1.231 1.3-1.3 0-.309-.33-.037-1.425 1.175m129.625.7c.341.66.711 1.2.821 1.2.11 0-.08-.54-.421-1.2-.341-.66-.711-1.2-.821-1.2-.11 0 .08.54.421 1.2m-214 4.8c2.633 2.64 4.877 4.8 4.987 4.8.11 0-1.954-2.16-4.587-4.8-2.633-2.64-4.877-4.8-4.987-4.8-.11 0 1.954 2.16 4.587 4.8m78.192 1.1L234.6 207l3.9-3.792c2.145-2.086 3.9-3.841 3.9-3.9 0-.29-.486.17-4.008 3.792m139.886 1.895c.366.767.736 1.324.823 1.237.183-.183-1.031-2.632-1.305-2.632-.101 0 .116.628.482 1.395M167.4 209.2c.859.88 1.652 1.6 1.762 1.6.11 0-.503-.72-1.362-1.6-.859-.88-1.652-1.6-1.762-1.6-.11 0 .503.72 1.362 1.6m64.6.2c-.972.99-1.677 1.8-1.567 1.8.11 0 .995-.81 1.967-1.8.972-.99 1.677-1.8 1.567-1.8-.11 0-.995.81-1.967 1.8m-214.239 2.05c-.547 1.237-.897 2.347-.778 2.466.119.12.217.12.217 0 0-.119.448-1.229.995-2.466.547-1.238.897-2.25.778-2.25s-.665 1.012-1.212 2.25m331.039.95c.449.88.906 1.6 1.016 1.6.11 0-.167-.72-.616-1.6-.449-.88-.906-1.6-1.016-1.6-.11 0 .167.72.616 1.6m-177.217.9c1.658 1.766 2.017 2.084 2.017 1.783 0-.064-.855-.919-1.9-1.9l-1.9-1.783 1.783 1.9m56.598 0L226.6 215l1.7-1.581c.935-.87 1.7-1.635 1.7-1.7 0-.303-.348 0-1.819 1.581m154.026-.221c.6 1.435.993 2.083.993 1.637 0-.432-1.215-3.116-1.411-3.116-.11 0 .078.666.418 1.479M174.7 216.426c.495.564.9 1.104.9 1.2.001.096-3.836.122-8.525.059-4.891-.066-8.941.051-9.5.275-.675.269 2.01.397 8.725.415 10.505.027 10.822-.047 8.6-2.005l-1.1-.97.9 1.026m49.962.305c-1.426 1.576-1.006 1.672 7.038 1.61l7.7-.06-6.4-.351c-3.52-.194-6.895-.288-7.5-.21-1.277.164-1.344.012-.438-.989.364-.402.572-.731.462-.731-.11 0-.498.329-.862.731M47 218.8c-.341.66-.531 1.2-.421 1.2.11 0 .48-.54.821-1.2.341-.66.531-1.2.421-1.2-.11 0-.48.54-.821 1.2m306 1.6c.341.66.711 1.2.821 1.2.11 0-.08-.54-.421-1.2-.341-.66-.711-1.2-.821-1.2-.11 0 .08.54.421 1.2m33.028 1.4c0 .22.258.85.572 1.4.314.55.572.82.572.6 0-.22-.258-.85-.572-1.4-.314-.55-.572-.82-.572-.6m-132.991 2.4c.36.55.72 1 .8 1 .08 0-.059-.45-.31-1-.25-.55-.611-1-.8-1-.19 0-.051.45.31 1m-210.158 3.391c-.459 1.105-.748 2.009-.643 2.009.268 0 1.819-3.678 1.631-3.866-.084-.084-.528.751-.988 1.857m212.327 3.909c-.003.715.063 1.3.147 1.3.364 0 .519-1.559.204-2.056-.234-.37-.347-.128-.351.756m-246.027.755c-.221.581-.327 1.13-.236 1.221.09.091.356-.384.59-1.056.52-1.492.206-1.638-.354-.165m243.858 6.345c-.361.55-.5 1-.31 1 .189 0 .55-.45.8-1 .251-.55.39-1 .31-1-.08 0-.44.45-.8 1m-3.837 3.82-1 .802 1.1-.475c.605-.262 1.1-.627 1.1-.811 0-.457-.055-.434-1.2.484m-92.539 2.48c.103.165 6.791.265 14.863.222 8.072-.043 13.506-.131 12.076-.195-6.236-.278-27.107-.299-26.939-.027m70.239-.2-13.7.111.09 7.494.091 7.495.118-7.3.119-7.3h14.367c9.147 0 14.458-.145 14.615-.4.147-.237-.209-.362-.876-.305-.618.052-7.289.144-14.824.205m-191.704 2.333c-.003.202-.276 1.261-.607 2.354-.332 1.093-.45 1.813-.264 1.6.493-.561 1.371-3.824 1.103-4.093-.126-.125-.23-.062-.232.139m329.244.705c-.065.555 1.22 4.736 1.4 4.555.092-.091-.177-1.23-.597-2.529-.42-1.3-.781-2.212-.803-2.026M1.469 261.156c-.148.739-.249 1.726-.225 2.194.024.468.203.04.398-.95s.296-1.977.225-2.194c-.071-.216-.25.211-.398.95m396.143-.356c0 .33.175.87.388 1.2.345.533.388.533.388 0 0-.33-.175-.87-.388-1.2-.345-.533-.388-.533-.388 0m-251.037 2.9L145.4 265l1.3-1.175c1.212-1.095 1.484-1.425 1.175-1.425-.069 0-.654.585-1.3 1.3m251.431-.267c.003.422.189 1.037.412 1.367.297.438.334.276.138-.6-.329-1.471-.558-1.79-.55-.767m-367.357 2.382a3.854 3.854 0 0 0-.215 1.318c.019.367.193.136.387-.513.377-1.262.244-1.887-.172-.805m222.081 1.367c.368.869.726 1.422.794 1.227.126-.36-1.011-2.809-1.305-2.809-.088 0 .142.712.511 1.582m116.328 1.618c.317 1.725.544 2.051.536.767-.003-.532-.183-1.237-.4-1.567-.276-.422-.317-.185-.136.8m-338.809-.185a3.854 3.854 0 0 0-.215 1.318c.019.367.193.136.387-.513.377-1.262.244-1.887-.172-.805m112.665 3.985c.003 1.1.081 1.503.173.895.092-.609.09-1.509-.005-2-.095-.492-.171.005-.168 1.105m226.544-.2c.317 1.725.544 2.051.536.767-.003-.532-.183-1.237-.4-1.567-.276-.422-.317-.185-.136.8m-339.591-.133c-.147.146-.251.821-.231 1.5l.036 1.233.387-1.344c.386-1.343.31-1.892-.192-1.389M.093 274.8c0 .77.082 1.085.183.7.1-.385.1-1.015 0-1.4-.101-.385-.183-.07-.183.7m369.638 5.4c.002 1.54.074 2.121.161 1.291.087-.83.085-2.09-.003-2.8-.089-.71-.16-.031-.158 1.509m-222.931 2c.746.77 1.447 1.4 1.557 1.4.11 0-.411-.63-1.157-1.4-.746-.77-1.447-1.4-1.557-1.4-.11 0 .411.63 1.157 1.4M.093 286.4c0 .77.082 1.085.183.7.1-.385.1-1.015 0-1.4-.101-.385-.183-.07-.183.7m29.507.51c0 .793.191 1.561.426 1.706.289.179.336-.228.146-1.277-.369-2.042-.572-2.194-.572-.429m127.4-.892c1.1.172 3.26.302 4.8.291l2.8-.022-2.2-.304c-1.21-.167-3.37-.298-4.8-.29l-2.6.014 2 .311m74.6-.018-4.2.243 5.2.044c2.86.023 6.1-.097 7.2-.269 2.543-.396-1.527-.405-8.2-.018m138.054 1.6c-.035.55-.158 1.45-.271 2l-.206 1 .43-.985c.236-.541.358-1.441.271-2l-.158-1.015-.066 1m-156.679 10c0 5.83.056 8.215.124 5.3s.068-7.685 0-10.6-.124-.53-.124 5.3M30 291.71c0 .573.187 1.158.416 1.3.273.169.322-.133.144-.876-.368-1.533-.56-1.678-.56-.424m339.264.157c-.035.697-.168 1.597-.294 2-.217.692-.205.693.224.024.251-.389.383-1.289.295-2l-.161-1.291-.064 1.267m-338.858 2.766c.003.642.178 1.437.389 1.767.26.409.304.09.137-1-.303-1.977-.534-2.314-.526-.767m367.86 3.335c-.147 1.41-.192 2.639-.1 2.732.248.247.749-4.154.544-4.77-.097-.29-.296.627-.444 2.038M1.458 301.6c.317 1.725.544 2.051.536.767-.003-.532-.183-1.237-.4-1.567-.276-.422-.317-.185-.136.8m396.409-.133c-.147.146-.256.641-.242 1.1.024.766.057.756.409-.125.392-.979.31-1.453-.167-.975m-185.205 11.67c-.17 1.396-.491 3.016-.711 3.6-.282.748-.276.939.022.644.521-.513 1.328-4.703 1.138-5.905-.076-.482-.278.266-.449 1.661m152.178 1.103c-.23.833-.346 1.587-.258 1.675.088.088.348-.522.578-1.355.23-.833.346-1.587.258-1.675-.088-.088-.348.522-.578 1.355m-330.253.785c.307 1.02.689 1.971.849 2.114.16.144.16-.099 0-.539a16.077 16.077 0 0 1-.516-1.908c-.123-.61-.373-1.201-.557-1.315-.183-.113-.082.628.224 1.648m152.417.163c.116.763.393 1.569.614 1.79.272.272.279.013.024-.787-.684-2.146-.853-2.412-.638-1.003m207.442 2.879c-.025.367-.15.997-.276 1.4-.218.695-.207.696.227.02.251-.391.376-1.021.276-1.4-.162-.619-.185-.621-.227-.02M361 325.061c-.336.804-.518 1.554-.405 1.667.113.113.205.107.205-.012 0-.12.272-.87.605-1.667.333-.797.516-1.449.406-1.449-.11 0-.475.658-.811 1.461m-162.2.139c0 .22.36.4.8.4.44 0 .8-.18.8-.4 0-.22-.36-.4-.8-.4-.44 0-.8.18-.8.4m191.465 6.071c-.361.919-.573 1.754-.472 1.855.178.179.597-.753 1.181-2.626.476-1.528-.016-.993-.709.771M9.418 332.5c.15.495.437 1.076.638 1.291.201.215.163-.19-.084-.9-.507-1.453-.975-1.783-.554-.391m376.46 9.305c-.366.767-.583 1.395-.482 1.395.274 0 1.488-2.449 1.305-2.632-.087-.087-.457.47-.823 1.237M61.8 360c.859.88 1.652 1.6 1.762 1.6.11 0-.503-.72-1.362-1.6-.859-.88-1.652-1.6-1.762-1.6-.11 0 .503.72 1.362 1.6m312.199 2.1c-.589.804-.686 1.084-.254.733.656-.533 1.648-2.033 1.344-2.033-.076 0-.567.585-1.09 1.3m-304.311 4.913c.598.63 1.159 1.064 1.247.966.088-.099-.402-.614-1.088-1.145l-1.247-.965 1.088 1.144m259.312.431-1.6 1.432 1.7-1.272c1.463-1.094 1.991-1.621 1.6-1.598-.055.003-.82.65-1.7 1.438m-249 7.08c0 .093.765.674 1.7 1.291.935.617 1.489.865 1.231.553-.497-.601-2.931-2.132-2.931-1.844m238.1.722c-1.363.873-1.805 1.46-.6.797.918-.504 2.356-1.616 2.1-1.624-.11-.003-.785.369-1.5.827M39.823 379.3c1.968 2.035 4.207 4.227 4.977 4.87.77.644-.757-1.021-3.394-3.7-2.636-2.678-4.876-4.87-4.976-4.87-.101 0 1.426 1.665 3.393 3.7m54.577 3.724c0 .086.54.435 1.2.776.66.341 1.2.475 1.2.298s-.54-.526-1.2-.776c-.66-.249-1.2-.383-1.2-.298m207.9 1.003c-.825.436-1.5.881-1.5.991 0 .178 3.159-1.299 3.567-1.667.46-.417-.742-.023-2.067.676m51.164 1.106c-.775.81-.911 1.134-.475 1.134.336 0 .519-.092.407-.204-.112-.112.19-.622.67-1.133.48-.512.786-.93.679-.93-.108 0-.684.51-1.281 1.133M126.8 395.773c1.674.677 2.316.774 1.78.269-.209-.197-1.01-.465-1.78-.596l-1.4-.239 1.4.566m145.4-.288c-.44.106-.965.349-1.166.54-.201.191.339.154 1.2-.081 2.321-.634 2.293-1.018-.034-.459m-129.548 4.098c.384.353 3.676 1.018 3.337.675-.117-.118-.993-.39-1.949-.604-.955-.215-1.58-.247-1.388-.071m113.148.036c-.558.252-.315.288.8.119.88-.134 1.675-.31 1.767-.391.343-.303-1.799-.076-2.567.272m77.5.827c-1.363.873-1.805 1.46-.6.797.918-.504 2.356-1.616 2.1-1.624-.11-.003-.785.369-1.5.827m-162.8 3.43c.385.1 1.015.1 1.4 0 .385-.101.07-.183-.7-.183s-1.085.082-.7.183m3.3.121c.764.331 3.714.558 3.367.259-.092-.079-1.067-.247-2.167-.374-1.287-.149-1.715-.108-1.2.115m50 .003-1.6.286 1.4.029c.77.016 1.76-.126 2.2-.315.943-.405.262-.405-2 0m3.9-.124c.385.1 1.015.1 1.4 0 .385-.101.07-.183-.7-.183s-1.085.082-.7.183m-48.1.508c.538.362 4.37.623 3.967.27-.092-.08-1.157-.264-2.367-.409-1.533-.184-2.018-.142-1.6.139m38.4.016-1.4.295 1.4.024c.77.014 1.76-.13 2.2-.319l.8-.344-.8.025c-.44.013-1.43.157-2.2.319m-29.8.4c.44.189 2.15.331 3.8.316l3-.029-2.2-.304c-3.151-.435-5.632-.426-4.6.017m19.4 0-2.6.262 3.2.063c1.76.034 3.47-.112 3.8-.325.677-.438-.054-.438-4.4 0m-121.2 6.996c0 .274 2.449 1.488 2.632 1.305.087-.087-.47-.457-1.237-.823-.767-.366-1.395-.583-1.395-.482m21.809 8.965c.215.21.931.51 1.591.667 1.548.367 1.2.026-.591-.579-.765-.259-1.215-.299-1-.088m180.791.653c-1 .482-1.034.537-.2.334 1.133-.277 2.407-.927 1.8-.918-.22.003-.94.266-1.6.584M123.2 425.4c.77.297 1.67.539 2 .539.33 0-.03-.242-.8-.539-.77-.297-1.67-.539-2-.539-.33 0 .03.242.8.539m152.8-.2c-.824.264-.859.326-.2.354.44.019 1.07-.141 1.4-.354.701-.453.214-.453-1.2 0m-138.4 3.552c.33.186 1.23.45 2 .586.843.15 1.161.114.8-.09-.33-.186-1.23-.45-2-.586-.843-.15-1.161-.114-.8.09m122.8-.064c-.55.099-1.149.323-1.332.498-.183.175.409.183 1.316.017.906-.166 1.761-.414 1.899-.552.265-.266-.25-.256-1.883.037M239 432.4c-.315.509.612.509 1.4 0 .488-.315.436-.389-.276-.394-.482-.003-.988.174-1.124.394m-76.967.144c.472.406 2.41.649 2.177.272-.142-.229-.727-.416-1.3-.416-.574 0-.968.065-.877.144m73.357.272c-.169.273.133.322.876.144 1.533-.368 1.678-.56.424-.56-.573 0-1.158.187-1.3.416m-69.757.128c.092.08.977.252 1.967.383 1.202.159 1.534.12 1-.117-.764-.338-3.314-.567-2.967-.266m65.767.275c-.558.252-.315.288.8.119.88-.134 1.675-.31 1.767-.391.343-.303-1.799-.076-2.567.272m-60.9.257c.385.1 1.015.1 1.4 0 .385-.101.07-.183-.7-.183s-1.085.082-.7.183m57.6 0c.385.1 1.015.1 1.4 0 .385-.101.07-.183-.7-.183s-1.085.082-.7.183m-36.593 1.214c.719.089 1.799.087 2.4-.004s.013-.164-1.307-.162c-1.32.002-1.812.077-1.093.166m14.793-.001c.715.089 1.885.089 2.6 0 .715-.088.13-.161-1.3-.161-1.43 0-2.015.073-1.3.161" fill="#585858"/><path d="M304.109 58.8c0 .99.078 1.395.173.9a5.661 5.661 0 0 0 0-1.8c-.095-.495-.173-.09-.173.9m19.091 69.902c0 .22.27.624.6.898.335.278.6.321.6.098 0-.22-.27-.624-.6-.898-.335-.278-.6-.321-.6-.098m4.162 4.44c.419.472.925.858 1.124.858.563 0-.036-.746-1.008-1.256-.872-.457-.873-.454-.116.398M99.563 147.915c-1.196 1.302-1.216 1.355-.163.434.66-.577 1.461-1.129 1.78-1.226.36-.109.422-.275.164-.434-.23-.142-1.031.41-1.781 1.226m202.118 2.466c.281.45.738.819 1.015.819.743 0 .622-.231-.511-.973-.992-.65-1.004-.646-.504.154m4.118 4.417c.135.219.604.589 1.042.824.731.391.754.359.281-.398-.283-.453-.752-.824-1.042-.824-.29 0-.417.179-.281.398m-62.598 43.4c-.515.55-.849 1.087-.741 1.196.108.108.594-.342 1.08-.999 1.077-1.456.926-1.543-.339-.197M231.7 217.891c.825.087 2.175.087 3 0 .825-.086.15-.157-1.5-.157s-2.325.071-1.5.157m-85.3 21.434c0 .069.585.654 1.3 1.3l1.3 1.175-1.175-1.3c-1.095-1.212-1.425-1.484-1.425-1.175m39.377 5.99c-.109.284-.147 3.479-.086 7.1l.112 6.585.198-7.1c.195-6.972.173-7.62-.224-6.585M164.726 259.5c4.029.065 10.509.065 14.4-.001 3.891-.065.594-.119-7.326-.118-7.92 0-11.103.053-7.074.119m55.348-.001c3.671.066 9.791.066 13.6 0 3.809-.065.806-.119-6.674-.119-7.48-.001-10.597.053-6.926.119M360.981 378.1l-1.581 1.7 1.7-1.581c1.581-1.471 1.884-1.819 1.581-1.819-.065 0-.83.765-1.7 1.7M197.3 405.097c1.485.077 3.915.077 5.4 0 1.485-.077.27-.14-2.7-.14s-4.185.063-2.7.14" fill="#7c7c7c"/><path d="M289.787 24.722c2.308 2.395 2.613 2.665 2.613 2.315 0-.245-3.303-3.551-4.21-4.215-.435-.317.284.538 1.597 1.9M209.7 29.876c.385.1 1.015.1 1.4 0 .385-.101.07-.183-.7-.183s-1.085.082-.7.183m90.5 9.724c.341.66.69 1.2.776 1.2.085 0-.049-.54-.298-1.2-.25-.66-.599-1.2-.776-1.2-.177 0-.043.54.298 1.2M140.441 88.772c.557.874 3.159 3.159 3.159 2.773 0-.086-.85-.964-1.889-1.951-1.066-1.012-1.619-1.37-1.27-.822m116.944 1.304c-1.743 1.823-1.79 1.913-.385.733 1.435-1.206 2.867-2.809 2.508-2.809-.076 0-1.031.934-2.123 2.076m-110.809 25.346c-.764.612-.763.616.024.254.44-.202 1.07-.468 1.4-.59.518-.193.515-.227-.024-.254-.342-.018-.972.248-1.4.59M71.599 133.7c-.589.804-.686 1.084-.254.733.656-.533 1.648-2.033 1.344-2.033-.076 0-.567.585-1.09 1.3m256.801.425c0 .069.585.654 1.3 1.3l1.3 1.175-1.175-1.3c-1.095-1.212-1.425-1.484-1.425-1.175m7.149 7.779c.207.388.787 1.063 1.288 1.5.746.652.708.524-.211-.704-1.186-1.587-1.706-1.971-1.077-.796m-231.774 2.195c-.924 1.021-.962 1.118-.175.454.55-.464 1.36-1.043 1.8-1.286.598-.331.642-.446.175-.455-.344-.007-1.154.572-1.8 1.287m198.664 7.201c.096.055.981.82 1.967 1.7l1.794 1.6-1.581-1.7c-.87-.935-1.755-1.7-1.967-1.7-.212 0-.308.045-.213.1m-208.871 2.6c-2.359 2.643-2.894 3.3-2.686 3.3.121 0 1.067-.99 2.1-2.2 1.914-2.24 2.373-3.102.586-1.1M81.6 167.2c-.47.66-.707 1.199-.527 1.197.18-.001.634-.541 1.008-1.2.877-1.54.617-1.539-.481.003m162 10.925c0 .069.585.654 1.3 1.3l1.3 1.175-1.175-1.3c-1.095-1.212-1.425-1.484-1.425-1.175M181 184.8c3.371 3.386 4.87 4.68 3.162 2.73-1.391-1.59-6.264-6.33-6.507-6.33-.131 0 1.374 1.62 3.345 3.6m39.174-1.493-1.574 1.692 1.596-1.4c.877-.769 1.672-1.444 1.766-1.499.094-.055.085-.187-.021-.293-.106-.106-.901.569-1.767 1.5m-3.078 2.909c-.603.559-1.096 1.133-1.096 1.275 0 .142.54-.259 1.2-.891 1.103-1.056 1.372-1.4 1.096-1.4-.057 0-.597.457-1.2 1.016M213.6 189.8c-.972.99-1.677 1.8-1.567 1.8.11 0 .995-.81 1.967-1.8.972-.99 1.677-1.8 1.567-1.8-.11 0-.995.81-1.967 1.8m-4.218 3.915c-.993 1.153-1.023 1.605-.047.715.586-.533 1.065-1.028 1.065-1.1 0-.302-.631-.063-1.018.385m-19.382.187c0 .22.27.624.6.898.335.278.6.321.6.098 0-.22-.27-.624-.6-.898-.335-.278-.6-.321-.6-.098M22.2 202c-.341.66-.531 1.2-.421 1.2.11 0 .48-.54.821-1.2.341-.66.531-1.2.421-1.2-.11 0-.48.54-.821 1.2m362.2 15.5c0 .191.261.696.58 1.124.56.749.572.744.352-.13-.228-.903-.932-1.654-.932-.994m-147.5.387a8.899 8.899 0 0 0 2.2 0c.605-.092.11-.167-1.1-.167-1.21 0-1.705.075-1.1.167m4 .389c.385.1 1.015.1 1.4 0 .385-.101.07-.183-.7-.183s-1.085.082-.7.183m-97.044 11.408c-.135.504-.228 1.366-.207 1.916.023.589.182.271.387-.775.367-1.873.237-2.698-.18-1.141M186.09 251.9l-.09 6.9-14.7.006c-8.085.003-14.908.138-15.163.3-.254.162 6.403.237 14.793.168 8.391-.07 15.309-.179 15.373-.243.064-.065.062-3.248-.003-7.074l-.12-6.957-.09 6.9m29.71 7.171c5.639.276 26.086.304 25.663.035-.255-.162-6.673-.262-14.263-.223-7.59.039-12.72.124-11.4.188M29.709 277.6c0 .99.078 1.395.173.9a5.661 5.661 0 0 0 0-1.8c-.095-.495-.173-.09-.173.9m.011 4.8c0 1.21.075 1.705.167 1.1a8.899 8.899 0 0 0 0-2.2c-.092-.605-.167-.11-.167 1.1m209.98 3.876c.385.1 1.015.1 1.4 0 .385-.101.07-.183-.7-.183s-1.085.082-.7.183m99.889 70.837c-1.645 1.99-1.849 2.35-.845 1.491.827-.707 1.886-2.204 1.559-2.204-.069 0-.39.321-.714.713m-276.806 3.391c.981 1.043 1.926 1.896 2.1 1.896.334 0-.277-.63-2.519-2.596-.92-.807-.784-.579.419.7m272.852.542c-.5.575-.683.97-.406.878.485-.162 1.851-1.924 1.492-1.924-.097 0-.586.471-1.086 1.046m-3.835 3.566c-.66.541-1.006.985-.77.986.237.001.853-.448 1.37-.998 1.185-1.262.948-1.257-.6.012M29.849 368.4c.467.55.948 1.27 1.069 1.6.187.514.223.509.25-.03.018-.347-.463-1.067-1.068-1.6l-1.1-.97.849 1M40 379.725c0 .069.585.654 1.3 1.3l1.3 1.175-1.175-1.3C40.33 379.688 40 379.416 40 379.725m314.981 4.375-1.581 1.7 1.7-1.581c.935-.87 1.7-1.635 1.7-1.7 0-.303-.348 0-1.819 1.581m-3.078 2.8c-.518.495-.649.675-.291.4.358-.275.862-.5 1.119-.5.258 0 .469-.18.469-.4 0-.594-.255-.496-1.297.5m-158.798 17.783c.497.096 1.217.092 1.6-.008.382-.1-.025-.179-.905-.174-.88.004-1.193.086-.695.182m12.6.004c.609.092 1.509.09 2-.005.492-.095-.005-.171-1.105-.168-1.1.003-1.503.081-.895.173m98.795 11.109c-.715.311-1.3.66-1.3.776 0 .247 2.026-.576 2.58-1.048.525-.448.234-.386-1.28.272" fill="#848484"/></g></svg>